<svg xmlns="http://www.w3.org/2000/svg" xmlns:xlink="http://www.w3.org/1999/xlink" width="1080" zoomAndPan="magnify" viewBox="0 0 810 809.999993" height="1080" preserveAspectRatio="xMidYMid meet" version="1.0"><defs><clipPath id="d17be4b345"><path d="M 0.847656 178.683594 L 141.152344 178.683594 L 141.152344 318.992188 L 0.847656 318.992188 Z M 0.847656 178.683594 " clip-rule="nonzero"/></clipPath><clipPath id="6244d95717"><path d="M 71 178.683594 C 32.253906 178.683594 0.847656 210.09375 0.847656 248.839844 C 0.847656 287.582031 32.253906 318.992188 71 318.992188 C 109.746094 318.992188 141.152344 287.582031 141.152344 248.839844 C 141.152344 210.09375 109.746094 178.683594 71 178.683594 Z M 71 178.683594 " clip-rule="nonzero"/></clipPath><clipPath id="ab642395cd"><path d="M 0.847656 0.683594 L 141.152344 0.683594 L 141.152344 140.992188 L 0.847656 140.992188 Z M 0.847656 0.683594 " clip-rule="nonzero"/></clipPath><clipPath id="3973b67ddf"><path d="M 71 0.683594 C 32.253906 0.683594 0.847656 32.09375 0.847656 70.839844 C 0.847656 109.582031 32.253906 140.992188 71 140.992188 C 109.746094 140.992188 141.152344 109.582031 141.152344 70.839844 C 141.152344 32.09375 109.746094 0.683594 71 0.683594 Z M 71 0.683594 " clip-rule="nonzero"/></clipPath><clipPath id="f4c073fed6"><rect x="0" width="142" y="0" height="141"/></clipPath><clipPath id="358a455bf8"><path d="M 0.847656 358.015625 L 141.152344 358.015625 L 141.152344 498.324219 L 0.847656 498.324219 Z M 0.847656 358.015625 " clip-rule="nonzero"/></clipPath><clipPath id="505e5bbb1b"><path d="M 71 358.015625 C 32.253906 358.015625 0.847656 389.425781 0.847656 428.171875 C 0.847656 466.914062 32.253906 498.324219 71 498.324219 C 109.746094 498.324219 141.152344 466.914062 141.152344 428.171875 C 141.152344 389.425781 109.746094 358.015625 71 358.015625 Z M 71 358.015625 " clip-rule="nonzero"/></clipPath><clipPath id="a05cf1a037"><path d="M 0.847656 0.015625 L 141.152344 0.015625 L 141.152344 140.324219 L 0.847656 140.324219 Z M 0.847656 0.015625 " clip-rule="nonzero"/></clipPath><clipPath id="9c0faa529f"><path d="M 71 0.015625 C 32.253906 0.015625 0.847656 31.425781 0.847656 70.171875 C 0.847656 108.914062 32.253906 140.324219 71 140.324219 C 109.746094 140.324219 141.152344 108.914062 141.152344 70.171875 C 141.152344 31.425781 109.746094 0.015625 71 0.015625 Z M 71 0.015625 " clip-rule="nonzero"/></clipPath><clipPath id="50ca0dc889"><rect x="0" width="142" y="0" height="141"/></clipPath><clipPath id="b2569af594"><path d="M 0.847656 537.347656 L 141.152344 537.347656 L 141.152344 677.65625 L 0.847656 677.65625 Z M 0.847656 537.347656 " clip-rule="nonzero"/></clipPath><clipPath id="63e879f810"><path d="M 71 537.347656 C 32.253906 537.347656 0.847656 568.757812 0.847656 607.503906 C 0.847656 646.246094 32.253906 677.65625 71 677.65625 C 109.746094 677.65625 141.152344 646.246094 141.152344 607.503906 C 141.152344 568.757812 109.746094 537.347656 71 537.347656 Z M 71 537.347656 " clip-rule="nonzero"/></clipPath><clipPath id="560ba348bb"><path d="M 0.847656 0.347656 L 141.152344 0.347656 L 141.152344 140.65625 L 0.847656 140.65625 Z M 0.847656 0.347656 " clip-rule="nonzero"/></clipPath><clipPath id="eef7e9a980"><path d="M 71 0.347656 C 32.253906 0.347656 0.847656 31.757812 0.847656 70.503906 C 0.847656 109.246094 32.253906 140.65625 71 140.65625 C 109.746094 140.65625 141.152344 109.246094 141.152344 70.503906 C 141.152344 31.757812 109.746094 0.347656 71 0.347656 Z M 71 0.347656 " clip-rule="nonzero"/></clipPath><clipPath id="24eac3062c"><rect x="0" width="142" y="0" height="141"/></clipPath><clipPath id="6037de2e82"><path d="M 0.847656 0.34375 L 309.410156 0.34375 L 309.410156 139.660156 L 0.847656 139.660156 Z M 0.847656 0.34375 " clip-rule="nonzero"/></clipPath><clipPath id="795dd4e9b8"><path d="M 70.503906 0.34375 L 239.496094 0.34375 C 277.964844 0.34375 309.152344 31.53125 309.152344 70 C 309.152344 108.472656 277.964844 139.660156 239.496094 139.660156 L 70.503906 139.660156 C 32.035156 139.660156 0.847656 108.472656 0.847656 70 C 0.847656 31.53125 32.035156 0.34375 70.503906 0.34375 Z M 70.503906 0.34375 " clip-rule="nonzero"/></clipPath><clipPath id="e95fee40f5"><path d="M 0.847656 0.34375 L 309.199219 0.34375 L 309.199219 139.660156 L 0.847656 139.660156 Z M 0.847656 0.34375 " clip-rule="nonzero"/></clipPath><clipPath id="e9baaf8e71"><path d="M 70.503906 0.34375 L 239.496094 0.34375 C 277.964844 0.34375 309.152344 31.53125 309.152344 70 C 309.152344 108.472656 277.964844 139.660156 239.496094 139.660156 L 70.503906 139.660156 C 32.035156 139.660156 0.847656 108.472656 0.847656 70 C 0.847656 31.53125 32.035156 0.34375 70.503906 0.34375 Z M 70.503906 0.34375 " clip-rule="nonzero"/></clipPath><clipPath id="988476402b"><rect x="0" width="310" y="0" height="140"/></clipPath><clipPath id="b35611f027"><rect x="0" width="310" y="0" height="678"/></clipPath></defs><g transform="matrix(1, 0, 0, 1, 250, 66)"><g clip-path="url(#b35611f027)"><g clip-path="url(#d17be4b345)"><g clip-path="url(#6244d95717)"><g transform="matrix(1, 0, 0, 1, 0, 178)"><g clip-path="url(#f4c073fed6)"><g clip-path="url(#ab642395cd)"><g clip-path="url(#3973b67ddf)"><path fill="#131521" d="M 0.847656 0.683594 L 141.152344 0.683594 L 141.152344 140.992188 L 0.847656 140.992188 Z M 0.847656 0.683594 " fill-opacity="1" fill-rule="nonzero"/></g></g></g></g></g></g><g clip-path="url(#358a455bf8)"><g clip-path="url(#505e5bbb1b)"><g transform="matrix(1, 0, 0, 1, 0, 358)"><g clip-path="url(#50ca0dc889)"><g clip-path="url(#a05cf1a037)"><g clip-path="url(#9c0faa529f)"><path fill="#ff4a1a" d="M 0.847656 0.015625 L 141.152344 0.015625 L 141.152344 140.324219 L 0.847656 140.324219 Z M 0.847656 0.015625 " fill-opacity="1" fill-rule="nonzero"/></g></g></g></g></g></g><g clip-path="url(#b2569af594)"><g clip-path="url(#63e879f810)"><g transform="matrix(1, 0, 0, 1, 0, 537)"><g clip-path="url(#24eac3062c)"><g clip-path="url(#560ba348bb)"><g clip-path="url(#eef7e9a980)"><path fill="#131521" d="M 0.847656 0.347656 L 141.152344 0.347656 L 141.152344 140.65625 L 0.847656 140.65625 Z M 0.847656 0.347656 " fill-opacity="1" fill-rule="nonzero"/></g></g></g></g></g></g><g clip-path="url(#6037de2e82)"><g clip-path="url(#795dd4e9b8)"><g transform="matrix(1, 0, 0, 1, 0, 0.000000000000042633)"><g clip-path="url(#988476402b)"><g clip-path="url(#e95fee40f5)"><g clip-path="url(#e9baaf8e71)"><path fill="#131521" d="M 0.847656 0.34375 L 309.410156 0.34375 L 309.410156 139.660156 L 0.847656 139.660156 Z M 0.847656 0.34375 " fill-opacity="1" fill-rule="nonzero"/></g></g></g></g></g></g></g></g></svg>