<?xml version="1.0" encoding="UTF-8"?>
<svg xmlns="http://www.w3.org/2000/svg" viewBox="22 60 276 288" preserveAspectRatio="xMidYMid meet">
  <g fill="#050d16" fill-opacity="1">
    <g transform="translate(3.09825, 311.250143)">
      <path d="M 94.84375 20.5625 C 90.519531 20.5625 87.660156 19.351562 86.265625 16.9375 C 84.867188 14.53125 84.171875 11.675781 84.171875 8.375 C 84.171875 5.582031 84.488281 2.726562 85.125 -0.1875 C 85.757812 -3.113281 86.457031 -5.59375 87.21875 -7.625 C 88.738281 -12.445312 90.320312 -17.269531 91.96875 -22.09375 C 93.625 -26.914062 95.21875 -30.847656 96.75 -33.890625 C 97.757812 -36.429688 98.707031 -39.035156 99.59375 -41.703125 C 100.488281 -44.367188 101.441406 -46.972656 102.453125 -49.515625 C 103.210938 -51.296875 104.035156 -53.132812 104.921875 -55.03125 C 105.816406 -56.9375 106.390625 -58.78125 106.640625 -60.5625 C 106.898438 -61.320312 107.03125 -62.207031 107.03125 -63.21875 C 107.03125 -64.488281 106.898438 -65.695312 106.640625 -66.84375 C 106.390625 -67.988281 106.265625 -69.195312 106.265625 -70.46875 C 106.515625 -74.53125 107.84375 -77.445312 110.25 -79.21875 C 112.664062 -81 115.019531 -83.160156 117.3125 -85.703125 C 119.851562 -88.742188 121.945312 -92.234375 123.59375 -96.171875 C 125.238281 -100.109375 126.953125 -103.851562 128.734375 -107.40625 C 132.285156 -114.519531 135.96875 -121.691406 139.78125 -128.921875 C 143.59375 -136.160156 147.398438 -143.335938 151.203125 -150.453125 C 154.765625 -156.796875 158.765625 -163.265625 163.203125 -169.859375 C 167.648438 -176.460938 172.539062 -182.429688 177.875 -187.765625 C 179.90625 -189.546875 182.0625 -191.195312 184.34375 -192.71875 C 186.625 -194.25 189.164062 -195.015625 191.96875 -195.015625 C 195.257812 -195.015625 197.984375 -193.929688 200.140625 -191.765625 C 202.304688 -189.609375 203.390625 -187.132812 203.390625 -184.34375 C 203.390625 -180.28125 201.609375 -176.851562 198.046875 -174.0625 C 194.492188 -171.269531 191.578125 -168.476562 189.296875 -165.6875 C 185.234375 -161.363281 181.675781 -156.789062 178.625 -151.96875 C 172.789062 -142.820312 167.269531 -133.296875 162.0625 -123.390625 C 156.851562 -113.492188 151.96875 -103.59375 147.40625 -93.6875 C 146.894531 -92.675781 146.445312 -91.789062 146.0625 -91.03125 C 145.6875 -90.269531 145.5 -89.507812 145.5 -88.75 C 145.5 -87.726562 146.382812 -87.21875 148.15625 -87.21875 C 151.96875 -87.21875 155.710938 -87.660156 159.390625 -88.546875 C 163.078125 -89.441406 166.695312 -90.269531 170.25 -91.03125 C 177.101562 -93.0625 183.957031 -95.535156 190.8125 -98.453125 C 197.675781 -101.378906 204.28125 -104.617188 210.625 -108.171875 C 216.96875 -111.722656 222.929688 -115.71875 228.515625 -120.15625 C 234.109375 -124.601562 238.9375 -129.75 243 -135.59375 C 246.550781 -140.664062 249.660156 -146.1875 252.328125 -152.15625 C 254.992188 -158.125 256.328125 -164.15625 256.328125 -170.25 C 256.328125 -179.644531 253.40625 -187.007812 247.5625 -192.34375 C 241.726562 -197.675781 235.128906 -201.738281 227.765625 -204.53125 C 215.316406 -209.101562 202.75 -211.390625 190.0625 -211.390625 C 181.675781 -211.390625 173.289062 -210.691406 164.90625 -209.296875 C 156.53125 -207.898438 148.28125 -206.1875 140.15625 -204.15625 C 132.289062 -202.125 124.613281 -199.707031 117.125 -196.90625 C 109.632812 -194.113281 102.585938 -190.6875 95.984375 -186.625 C 89.628906 -182.5625 83.40625 -177.738281 77.3125 -172.15625 C 71.21875 -166.570312 66.394531 -160.351562 62.84375 -153.5 C 61.832031 -150.957031 60.941406 -148.222656 60.171875 -145.296875 C 59.410156 -142.378906 59.03125 -139.523438 59.03125 -136.734375 C 59.03125 -133.179688 59.726562 -129.816406 61.125 -126.640625 C 62.519531 -123.460938 65 -121.113281 68.5625 -119.59375 C 70.082031 -118.832031 71.601562 -118.195312 73.125 -117.6875 C 74.644531 -117.175781 76.039062 -116.671875 77.3125 -116.171875 C 79.851562 -114.898438 81.757812 -113.375 83.03125 -111.59375 C 84.550781 -109.820312 85.3125 -107.921875 85.3125 -105.890625 C 85.3125 -103.347656 84.164062 -100.929688 81.875 -98.640625 C 79.59375 -96.359375 76.421875 -95.21875 72.359375 -95.21875 C 67.035156 -95.21875 61.707031 -96.929688 56.375 -100.359375 C 51.039062 -103.785156 46.976562 -107.273438 44.1875 -110.828125 C 41.132812 -114.890625 38.972656 -119.207031 37.703125 -123.78125 C 36.429688 -128.351562 35.796875 -132.925781 35.796875 -137.5 C 35.796875 -147.394531 38.398438 -157.101562 43.609375 -166.625 C 48.816406 -176.15625 54.972656 -184.21875 62.078125 -190.8125 C 67.671875 -196.144531 73.765625 -200.84375 80.359375 -204.90625 C 86.960938 -208.96875 93.820312 -212.523438 100.9375 -215.578125 C 107.789062 -218.878906 114.898438 -221.671875 122.265625 -223.953125 C 129.628906 -226.234375 136.992188 -228.140625 144.359375 -229.671875 C 151.460938 -230.941406 158.820312 -232.082031 166.4375 -233.09375 C 174.0625 -234.113281 181.679688 -234.625 189.296875 -234.625 C 197.171875 -234.625 204.914062 -234.050781 212.53125 -232.90625 C 220.144531 -231.757812 227.507812 -229.789062 234.625 -227 C 240.96875 -224.71875 246.992188 -221.796875 252.703125 -218.234375 C 258.421875 -214.679688 263.4375 -210.113281 267.75 -204.53125 C 271.3125 -199.445312 274.039062 -193.734375 275.9375 -187.390625 C 277.84375 -181.046875 278.796875 -174.695312 278.796875 -168.34375 C 278.796875 -159.707031 277.335938 -151.644531 274.421875 -144.15625 C 271.503906 -136.664062 267.628906 -129.617188 262.796875 -123.015625 C 258.234375 -117.179688 253.222656 -111.851562 247.765625 -107.03125 C 242.304688 -102.207031 236.523438 -97.757812 230.421875 -93.6875 C 226.867188 -91.40625 223.25 -89.3125 219.5625 -87.40625 C 215.882812 -85.5 212.144531 -83.660156 208.34375 -81.890625 C 204.78125 -80.367188 201.097656 -78.84375 197.296875 -77.3125 C 195.773438 -76.550781 194.25 -75.914062 192.71875 -75.40625 C 191.195312 -74.90625 189.925781 -74.398438 188.90625 -73.890625 C 187.382812 -73.378906 186.625 -72.867188 186.625 -72.359375 C 186.625 -71.597656 187.003906 -70.835938 187.765625 -70.078125 C 189.296875 -68.804688 190.757812 -67.597656 192.15625 -66.453125 C 193.550781 -65.316406 194.882812 -64.113281 196.15625 -62.84375 C 201.738281 -57.769531 206.816406 -51.929688 211.390625 -45.328125 C 215.703125 -39.234375 219.570312 -32.566406 223 -25.328125 C 226.425781 -18.085938 228.898438 -10.785156 230.421875 -3.421875 C 230.679688 -2.160156 230.875 -0.894531 231 0.375 C 231.125 1.644531 231.1875 3.046875 231.1875 4.578125 C 231.1875 6.347656 230.929688 8.117188 230.421875 9.890625 C 229.921875 11.671875 229.035156 13.195312 227.765625 14.46875 C 225.472656 16.757812 222.804688 17.90625 219.765625 17.90625 C 215.953125 17.90625 212.90625 16.507812 210.625 13.71875 C 208.34375 10.914062 207.007812 7.609375 206.625 3.796875 C 206.238281 -0.00390625 205.539062 -3.554688 204.53125 -6.859375 C 202.5 -13.960938 199.328125 -20.941406 195.015625 -27.796875 C 190.941406 -34.660156 186.238281 -40.882812 180.90625 -46.46875 C 175.582031 -52.050781 169.363281 -56.75 162.25 -60.5625 C 159.207031 -62.082031 156.285156 -63.097656 153.484375 -63.609375 C 150.691406 -64.117188 147.648438 -64.375 144.359375 -64.375 C 142.066406 -64.375 139.523438 -64.117188 136.734375 -63.609375 C 133.941406 -63.097656 131.910156 -61.703125 130.640625 -59.421875 C 128.609375 -56.117188 126.957031 -52.4375 125.6875 -48.375 C 124.414062 -44.3125 123.144531 -40.5 121.875 -36.9375 C 120.863281 -34.65625 119.660156 -31.738281 118.265625 -28.1875 C 116.867188 -24.632812 115.535156 -20.953125 114.265625 -17.140625 C 112.992188 -13.328125 111.722656 -9.578125 110.453125 -5.890625 C 109.179688 -2.210938 108.164062 1.65625 107.40625 5.71875 C 106.644531 9.019531 105.375 12.316406 103.59375 15.609375 C 101.820312 18.910156 98.90625 20.5625 94.84375 20.5625 Z M 94.84375 20.5625 "/>
    </g>
  </g>
</svg>
