<svg xmlns="http://www.w3.org/2000/svg" xmlns:xlink="http://www.w3.org/1999/xlink" width="600" zoomAndPan="magnify" viewBox="0 0 450 225" height="300" preserveAspectRatio="xMidYMid meet" version="1.0"><defs><g/><clipPath id="9a4a249595"><path d="M 21.75 93.761719 L 43.011719 93.761719 L 43.011719 115.023438 L 21.75 115.023438 Z M 21.75 93.761719 " clip-rule="nonzero"/></clipPath><clipPath id="33feecb816"><path d="M 32.378906 93.761719 C 26.507812 93.761719 21.75 98.523438 21.75 104.394531 C 21.75 110.265625 26.507812 115.023438 32.378906 115.023438 C 38.25 115.023438 43.011719 110.265625 43.011719 104.394531 C 43.011719 98.523438 38.25 93.761719 32.378906 93.761719 Z M 32.378906 93.761719 " clip-rule="nonzero"/></clipPath><clipPath id="698b8319f4"><path d="M 0.75 0.761719 L 22.011719 0.761719 L 22.011719 22.023438 L 0.75 22.023438 Z M 0.75 0.761719 " clip-rule="nonzero"/></clipPath><clipPath id="2541bf8cee"><path d="M 11.378906 0.761719 C 5.507812 0.761719 0.75 5.523438 0.75 11.394531 C 0.75 17.265625 5.507812 22.023438 11.378906 22.023438 C 17.25 22.023438 22.011719 17.265625 22.011719 11.394531 C 22.011719 5.523438 17.25 0.761719 11.378906 0.761719 Z M 11.378906 0.761719 " clip-rule="nonzero"/></clipPath><clipPath id="c8ddf534c9"><rect x="0" width="23" y="0" height="23"/></clipPath><clipPath id="064a713664"><path d="M 21.75 120.9375 L 43.011719 120.9375 L 43.011719 142.199219 L 21.75 142.199219 Z M 21.75 120.9375 " clip-rule="nonzero"/></clipPath><clipPath id="e874eb0a25"><path d="M 32.378906 120.9375 C 26.507812 120.9375 21.75 125.699219 21.75 131.570312 C 21.75 137.441406 26.507812 142.199219 32.378906 142.199219 C 38.25 142.199219 43.011719 137.441406 43.011719 131.570312 C 43.011719 125.699219 38.25 120.9375 32.378906 120.9375 Z M 32.378906 120.9375 " clip-rule="nonzero"/></clipPath><clipPath id="9c31e6f641"><path d="M 0.75 0.9375 L 22.011719 0.9375 L 22.011719 22.199219 L 0.75 22.199219 Z M 0.75 0.9375 " clip-rule="nonzero"/></clipPath><clipPath id="0d5b98d32f"><path d="M 11.378906 0.9375 C 5.507812 0.9375 0.75 5.699219 0.75 11.570312 C 0.75 17.441406 5.507812 22.199219 11.378906 22.199219 C 17.25 22.199219 22.011719 17.441406 22.011719 11.570312 C 22.011719 5.699219 17.25 0.9375 11.378906 0.9375 Z M 11.378906 0.9375 " clip-rule="nonzero"/></clipPath><clipPath id="707554e087"><rect x="0" width="23" y="0" height="23"/></clipPath><clipPath id="7b5b6c59fd"><path d="M 21.75 148.113281 L 43.011719 148.113281 L 43.011719 169.375 L 21.75 169.375 Z M 21.75 148.113281 " clip-rule="nonzero"/></clipPath><clipPath id="4b662c1709"><path d="M 32.378906 148.113281 C 26.507812 148.113281 21.75 152.871094 21.75 158.742188 C 21.75 164.613281 26.507812 169.375 32.378906 169.375 C 38.25 169.375 43.011719 164.613281 43.011719 158.742188 C 43.011719 152.871094 38.25 148.113281 32.378906 148.113281 Z M 32.378906 148.113281 " clip-rule="nonzero"/></clipPath><clipPath id="858349a612"><path d="M 0.75 0.113281 L 22.011719 0.113281 L 22.011719 21.375 L 0.75 21.375 Z M 0.75 0.113281 " clip-rule="nonzero"/></clipPath><clipPath id="57b46b3330"><path d="M 11.378906 0.113281 C 5.507812 0.113281 0.75 4.871094 0.75 10.742188 C 0.75 16.613281 5.507812 21.375 11.378906 21.375 C 17.25 21.375 22.011719 16.613281 22.011719 10.742188 C 22.011719 4.871094 17.25 0.113281 11.378906 0.113281 Z M 11.378906 0.113281 " clip-rule="nonzero"/></clipPath><clipPath id="a396b8e2cb"><rect x="0" width="23" y="0" height="22"/></clipPath><clipPath id="d25619256f"><path d="M 21.75 66.738281 L 68.507812 66.738281 L 68.507812 87.847656 L 21.75 87.847656 Z M 21.75 66.738281 " clip-rule="nonzero"/></clipPath><clipPath id="2a3fceef03"><path d="M 32.304688 66.738281 L 57.914062 66.738281 C 63.742188 66.738281 68.46875 71.464844 68.46875 77.292969 C 68.46875 83.125 63.742188 87.847656 57.914062 87.847656 L 32.304688 87.847656 C 26.476562 87.847656 21.75 83.125 21.75 77.292969 C 21.75 71.464844 26.476562 66.738281 32.304688 66.738281 Z M 32.304688 66.738281 " clip-rule="nonzero"/></clipPath><clipPath id="00f4146a6c"><path d="M 0.75 0.738281 L 47.507812 0.738281 L 47.507812 21.847656 L 0.75 21.847656 Z M 0.75 0.738281 " clip-rule="nonzero"/></clipPath><clipPath id="eed835dab0"><path d="M 11.304688 0.738281 L 36.914062 0.738281 C 42.742188 0.738281 47.46875 5.464844 47.46875 11.292969 C 47.46875 17.125 42.742188 21.847656 36.914062 21.847656 L 11.304688 21.847656 C 5.476562 21.847656 0.75 17.125 0.75 11.292969 C 0.75 5.464844 5.476562 0.738281 11.304688 0.738281 Z M 11.304688 0.738281 " clip-rule="nonzero"/></clipPath><clipPath id="db10bdfb01"><rect x="0" width="48" y="0" height="22"/></clipPath><clipPath id="44d3ca3cd8"><rect x="0" width="371" y="0" height="222"/></clipPath></defs><g clip-path="url(#9a4a249595)"><g clip-path="url(#33feecb816)"><g transform="matrix(1, 0, 0, 1, 21, 93)"><g clip-path="url(#c8ddf534c9)"><g clip-path="url(#698b8319f4)"><g clip-path="url(#2541bf8cee)"><path fill="#fafaf8" d="M 0.75 0.761719 L 22.011719 0.761719 L 22.011719 22.023438 L 0.75 22.023438 Z M 0.75 0.761719 " fill-opacity="1" fill-rule="nonzero"/></g></g></g></g></g></g><g clip-path="url(#064a713664)"><g clip-path="url(#e874eb0a25)"><g transform="matrix(1, 0, 0, 1, 21, 120)"><g clip-path="url(#707554e087)"><g clip-path="url(#9c31e6f641)"><g clip-path="url(#0d5b98d32f)"><path fill="#ff4a1a" d="M 0.75 0.9375 L 22.011719 0.9375 L 22.011719 22.199219 L 0.75 22.199219 Z M 0.75 0.9375 " fill-opacity="1" fill-rule="nonzero"/></g></g></g></g></g></g><g clip-path="url(#7b5b6c59fd)"><g clip-path="url(#4b662c1709)"><g transform="matrix(1, 0, 0, 1, 21, 148)"><g clip-path="url(#a396b8e2cb)"><g clip-path="url(#858349a612)"><g clip-path="url(#57b46b3330)"><path fill="#fafaf8" d="M 0.75 0.113281 L 22.011719 0.113281 L 22.011719 21.375 L 0.75 21.375 Z M 0.75 0.113281 " fill-opacity="1" fill-rule="nonzero"/></g></g></g></g></g></g><g clip-path="url(#d25619256f)"><g clip-path="url(#2a3fceef03)"><g transform="matrix(1, 0, 0, 1, 21, 66)"><g clip-path="url(#db10bdfb01)"><g clip-path="url(#00f4146a6c)"><g clip-path="url(#eed835dab0)"><path fill="#fafaf8" d="M 0.75 0.738281 L 47.507812 0.738281 L 47.507812 21.847656 L 0.75 21.847656 Z M 0.75 0.738281 " fill-opacity="1" fill-rule="nonzero"/></g></g></g></g></g></g><g transform="matrix(1, 0, 0, 1, 72, -0.000000000000008531)"><g clip-path="url(#44d3ca3cd8)"><g fill="#fafaf8" fill-opacity="1"><g transform="translate(0.640715, 168.385883)"><g><path d="M 51.84375 1.65625 C 42.132812 1.65625 34.179688 -0.375 27.984375 -4.4375 C 21.785156 -8.5 17.1875 -14.023438 14.1875 -21.015625 C 11.195312 -28.015625 9.703125 -35.878906 9.703125 -44.609375 C 9.703125 -53.710938 11.148438 -61.726562 14.046875 -68.65625 C 16.953125 -75.59375 21.382812 -81.015625 27.34375 -84.921875 C 33.300781 -88.828125 40.859375 -90.78125 50.015625 -90.78125 C 62.171875 -90.78125 71.695312 -87.113281 78.59375 -79.78125 C 85.5 -72.457031 88.953125 -61.925781 88.953125 -48.1875 C 88.953125 -47.269531 88.921875 -46.1875 88.859375 -44.9375 C 88.796875 -43.6875 88.703125 -42.785156 88.578125 -42.234375 L 25.015625 -42.234375 C 25.066406 -36.429688 25.992188 -31.101562 27.796875 -26.25 C 29.597656 -21.394531 32.453125 -17.5 36.359375 -14.5625 C 40.273438 -11.632812 45.4375 -10.171875 51.84375 -10.171875 C 58.6875 -10.171875 64.03125 -11.769531 67.875 -14.96875 C 71.726562 -18.175781 73.742188 -22.804688 73.921875 -28.859375 L 89.046875 -28.859375 C 88.859375 -22.566406 87.238281 -17.144531 84.1875 -12.59375 C 81.132812 -8.039062 76.859375 -4.523438 71.359375 -2.046875 C 65.859375 0.421875 59.351562 1.65625 51.84375 1.65625 Z M 25.09375 -53.40625 L 73.828125 -53.40625 C 73.648438 -61.707031 71.484375 -68.054688 67.328125 -72.453125 C 63.171875 -76.859375 57.398438 -79.0625 50.015625 -79.0625 C 42.566406 -79.0625 36.71875 -76.875 32.46875 -72.5 C 28.226562 -68.132812 25.769531 -61.769531 25.09375 -53.40625 Z M 25.09375 -53.40625 "/></g></g></g><g fill="#fafaf8" fill-opacity="1"><g transform="translate(108.676514, 168.385883)"><g><path d="M 40.390625 0 C 33.128906 0 27.570312 -1.144531 23.71875 -3.4375 C 19.875 -5.726562 17.25 -9.023438 15.84375 -13.328125 C 14.4375 -17.628906 13.734375 -22.804688 13.734375 -28.859375 L 13.734375 -123.296875 L 28.953125 -123.296875 L 28.953125 -29.59375 C 28.953125 -24.03125 29.664062 -19.78125 31.09375 -16.84375 C 32.53125 -13.914062 35.96875 -12.453125 41.40625 -12.453125 L 45.53125 -12.453125 L 45.53125 0 Z M 40.390625 0 "/></g></g></g><g fill="#fafaf8" fill-opacity="1"><g transform="translate(166.695749, 168.385883)"><g><path d="M 37.734375 1.65625 C 32.609375 1.65625 27.921875 0.675781 23.671875 -1.28125 C 19.429688 -3.238281 16.039062 -6.125 13.5 -9.9375 C 10.96875 -13.757812 9.703125 -18.476562 9.703125 -24.09375 C 9.703125 -32.09375 12.207031 -38.164062 17.21875 -42.3125 C 22.226562 -46.46875 29.3125 -49.296875 38.46875 -50.796875 C 47.632812 -52.296875 58.351562 -53.101562 70.625 -53.21875 L 70.625 -59.453125 C 70.625 -67.085938 68.726562 -72.320312 64.9375 -75.15625 C 61.15625 -78 56.363281 -79.421875 50.5625 -79.421875 C 44.394531 -79.421875 39.203125 -77.863281 34.984375 -74.75 C 30.773438 -71.632812 28.671875 -66.71875 28.671875 -60 L 13.828125 -60 C 13.828125 -67.332031 15.398438 -73.253906 18.546875 -77.765625 C 21.691406 -82.285156 26.023438 -85.582031 31.546875 -87.65625 C 37.078125 -89.738281 43.414062 -90.78125 50.5625 -90.78125 C 55.144531 -90.78125 59.523438 -90.351562 63.703125 -89.5 C 67.890625 -88.644531 71.644531 -87.085938 74.96875 -84.828125 C 78.300781 -82.566406 80.941406 -79.40625 82.890625 -75.34375 C 84.847656 -71.28125 85.828125 -66.046875 85.828125 -59.640625 L 85.828125 0 L 71.546875 0 L 70.90625 -13.5625 C 66.8125 -8.976562 62.0625 -5.296875 56.65625 -2.515625 C 51.25 0.265625 44.941406 1.65625 37.734375 1.65625 Z M 41.765625 -10.078125 C 47.878906 -10.078125 53.378906 -11.507812 58.265625 -14.375 C 63.148438 -17.25 67.238281 -20.882812 70.53125 -25.28125 L 70.53125 -43.421875 C 54.289062 -43.234375 42.644531 -41.703125 35.59375 -38.828125 C 28.539062 -35.960938 25.015625 -31.265625 25.015625 -24.734375 C 25.015625 -20.273438 26.429688 -16.71875 29.265625 -14.0625 C 32.109375 -11.40625 36.273438 -10.078125 41.765625 -10.078125 Z M 41.765625 -10.078125 "/></g></g></g><g fill="#fafaf8" fill-opacity="1"><g transform="translate(275.55599, 168.385883)"><g><path d="M 9.625 32.796875 L 9.625 20.15625 L 17.125 20.15625 C 20.613281 20.15625 23.5625 19.222656 25.96875 17.359375 C 28.382812 15.492188 30.445312 12.394531 32.15625 8.0625 L 35.640625 0 L 0 -89.21875 L 16.21875 -89.21875 L 43.78125 -16.21875 L 69.25 -89.21875 L 84.828125 -89.21875 L 51.296875 0 L 47.078125 10.8125 C 45.003906 16.125 42.789062 20.394531 40.4375 23.625 C 38.09375 26.863281 35.207031 29.203125 31.78125 30.640625 C 28.363281 32.078125 24 32.796875 18.6875 32.796875 Z M 9.625 32.796875 "/></g></g></g></g></g></svg>