<svg xmlns="http://www.w3.org/2000/svg" xmlns:xlink="http://www.w3.org/1999/xlink" width="1080" zoomAndPan="magnify" viewBox="0 0 810 809.999993" height="1080" preserveAspectRatio="xMidYMid meet" version="1.0"><defs><g/><clipPath id="0254a533d7"><path d="M 135.253906 378.292969 L 163.167969 378.292969 L 163.167969 406.207031 L 135.253906 406.207031 Z M 135.253906 378.292969 " clip-rule="nonzero"/></clipPath><clipPath id="7d38aed844"><path d="M 149.210938 378.292969 C 141.503906 378.292969 135.253906 384.542969 135.253906 392.25 C 135.253906 399.957031 141.503906 406.207031 149.210938 406.207031 C 156.921875 406.207031 163.167969 399.957031 163.167969 392.25 C 163.167969 384.542969 156.921875 378.292969 149.210938 378.292969 Z M 149.210938 378.292969 " clip-rule="nonzero"/></clipPath><clipPath id="aa9e994b0c"><path d="M 0.253906 0.292969 L 28.167969 0.292969 L 28.167969 28.207031 L 0.253906 28.207031 Z M 0.253906 0.292969 " clip-rule="nonzero"/></clipPath><clipPath id="082a692956"><path d="M 14.210938 0.292969 C 6.503906 0.292969 0.253906 6.542969 0.253906 14.25 C 0.253906 21.957031 6.503906 28.207031 14.210938 28.207031 C 21.921875 28.207031 28.167969 21.957031 28.167969 14.25 C 28.167969 6.542969 21.921875 0.292969 14.210938 0.292969 Z M 14.210938 0.292969 " clip-rule="nonzero"/></clipPath><clipPath id="781866bfc6"><rect x="0" width="29" y="0" height="29"/></clipPath><clipPath id="cca6a2ca03"><path d="M 135.253906 413.972656 L 163.167969 413.972656 L 163.167969 441.886719 L 135.253906 441.886719 Z M 135.253906 413.972656 " clip-rule="nonzero"/></clipPath><clipPath id="f5ca8fbef6"><path d="M 149.210938 413.972656 C 141.503906 413.972656 135.253906 420.21875 135.253906 427.929688 C 135.253906 435.636719 141.503906 441.886719 149.210938 441.886719 C 156.921875 441.886719 163.167969 435.636719 163.167969 427.929688 C 163.167969 420.21875 156.921875 413.972656 149.210938 413.972656 Z M 149.210938 413.972656 " clip-rule="nonzero"/></clipPath><clipPath id="74709bf7b7"><path d="M 0.253906 0.972656 L 28.167969 0.972656 L 28.167969 28.886719 L 0.253906 28.886719 Z M 0.253906 0.972656 " clip-rule="nonzero"/></clipPath><clipPath id="1871a0589b"><path d="M 14.210938 0.972656 C 6.503906 0.972656 0.253906 7.21875 0.253906 14.929688 C 0.253906 22.636719 6.503906 28.886719 14.210938 28.886719 C 21.921875 28.886719 28.167969 22.636719 28.167969 14.929688 C 28.167969 7.21875 21.921875 0.972656 14.210938 0.972656 Z M 14.210938 0.972656 " clip-rule="nonzero"/></clipPath><clipPath id="03c314e169"><rect x="0" width="29" y="0" height="29"/></clipPath><clipPath id="a1296006be"><path d="M 135.253906 449.648438 L 163.167969 449.648438 L 163.167969 477.5625 L 135.253906 477.5625 Z M 135.253906 449.648438 " clip-rule="nonzero"/></clipPath><clipPath id="420d8e8f45"><path d="M 149.210938 449.648438 C 141.503906 449.648438 135.253906 455.898438 135.253906 463.605469 C 135.253906 471.316406 141.503906 477.5625 149.210938 477.5625 C 156.921875 477.5625 163.167969 471.316406 163.167969 463.605469 C 163.167969 455.898438 156.921875 449.648438 149.210938 449.648438 Z M 149.210938 449.648438 " clip-rule="nonzero"/></clipPath><clipPath id="c9f949be88"><path d="M 0.253906 0.648438 L 28.167969 0.648438 L 28.167969 28.5625 L 0.253906 28.5625 Z M 0.253906 0.648438 " clip-rule="nonzero"/></clipPath><clipPath id="7eb5ac51e2"><path d="M 14.210938 0.648438 C 6.503906 0.648438 0.253906 6.898438 0.253906 14.605469 C 0.253906 22.316406 6.503906 28.5625 14.210938 28.5625 C 21.921875 28.5625 28.167969 22.316406 28.167969 14.605469 C 28.167969 6.898438 21.921875 0.648438 14.210938 0.648438 Z M 14.210938 0.648438 " clip-rule="nonzero"/></clipPath><clipPath id="088332fa0b"><rect x="0" width="29" y="0" height="29"/></clipPath><clipPath id="711e0238e5"><path d="M 135.253906 342.8125 L 196.644531 342.8125 L 196.644531 370.527344 L 135.253906 370.527344 Z M 135.253906 342.8125 " clip-rule="nonzero"/></clipPath><clipPath id="bcd260f3c7"><path d="M 149.113281 342.8125 L 182.734375 342.8125 C 190.386719 342.8125 196.59375 349.015625 196.59375 356.671875 C 196.59375 364.324219 190.386719 370.527344 182.734375 370.527344 L 149.113281 370.527344 C 141.460938 370.527344 135.253906 364.324219 135.253906 356.671875 C 135.253906 349.015625 141.460938 342.8125 149.113281 342.8125 Z M 149.113281 342.8125 " clip-rule="nonzero"/></clipPath><clipPath id="88637804ed"><path d="M 0.253906 0.8125 L 61.644531 0.8125 L 61.644531 28.527344 L 0.253906 28.527344 Z M 0.253906 0.8125 " clip-rule="nonzero"/></clipPath><clipPath id="a1cc16c915"><path d="M 14.113281 0.8125 L 47.734375 0.8125 C 55.386719 0.8125 61.59375 7.015625 61.59375 14.671875 C 61.59375 22.324219 55.386719 28.527344 47.734375 28.527344 L 14.113281 28.527344 C 6.460938 28.527344 0.253906 22.324219 0.253906 14.671875 C 0.253906 7.015625 6.460938 0.8125 14.113281 0.8125 Z M 14.113281 0.8125 " clip-rule="nonzero"/></clipPath><clipPath id="6e18ce2fea"><rect x="0" width="62" y="0" height="29"/></clipPath><clipPath id="d86bc4ae52"><rect x="0" width="487" y="0" height="302"/></clipPath></defs><g clip-path="url(#0254a533d7)"><g clip-path="url(#7d38aed844)"><g transform="matrix(1, 0, 0, 1, 135, 378)"><g clip-path="url(#781866bfc6)"><g clip-path="url(#aa9e994b0c)"><g clip-path="url(#082a692956)"><path fill="#fafaf8" d="M 0.253906 0.292969 L 28.167969 0.292969 L 28.167969 28.207031 L 0.253906 28.207031 Z M 0.253906 0.292969 " fill-opacity="1" fill-rule="nonzero"/></g></g></g></g></g></g><g clip-path="url(#cca6a2ca03)"><g clip-path="url(#f5ca8fbef6)"><g transform="matrix(1, 0, 0, 1, 135, 413)"><g clip-path="url(#03c314e169)"><g clip-path="url(#74709bf7b7)"><g clip-path="url(#1871a0589b)"><path fill="#ff4a1a" d="M 0.253906 0.972656 L 28.167969 0.972656 L 28.167969 28.886719 L 0.253906 28.886719 Z M 0.253906 0.972656 " fill-opacity="1" fill-rule="nonzero"/></g></g></g></g></g></g><g clip-path="url(#a1296006be)"><g clip-path="url(#420d8e8f45)"><g transform="matrix(1, 0, 0, 1, 135, 449)"><g clip-path="url(#088332fa0b)"><g clip-path="url(#c9f949be88)"><g clip-path="url(#7eb5ac51e2)"><path fill="#fafaf8" d="M 0.253906 0.648438 L 28.167969 0.648438 L 28.167969 28.5625 L 0.253906 28.5625 Z M 0.253906 0.648438 " fill-opacity="1" fill-rule="nonzero"/></g></g></g></g></g></g><g clip-path="url(#711e0238e5)"><g clip-path="url(#bcd260f3c7)"><g transform="matrix(1, 0, 0, 1, 135, 342)"><g clip-path="url(#6e18ce2fea)"><g clip-path="url(#88637804ed)"><g clip-path="url(#a1cc16c915)"><path fill="#fafaf8" d="M 0.253906 0.8125 L 61.644531 0.8125 L 61.644531 28.527344 L 0.253906 28.527344 Z M 0.253906 0.8125 " fill-opacity="1" fill-rule="nonzero"/></g></g></g></g></g></g><g transform="matrix(1, 0, 0, 1, 201, 244)"><g clip-path="url(#d86bc4ae52)"><g fill="#fafaf8" fill-opacity="1"><g transform="translate(1.070399, 232.266944)"><g><path d="M 68.078125 2.171875 C 55.328125 2.171875 44.878906 -0.492188 36.734375 -5.828125 C 28.597656 -11.160156 22.566406 -18.414062 18.640625 -27.59375 C 14.710938 -36.78125 12.75 -47.109375 12.75 -58.578125 C 12.75 -70.523438 14.648438 -81.046875 18.453125 -90.140625 C 22.265625 -99.242188 28.078125 -106.359375 35.890625 -111.484375 C 43.710938 -116.617188 53.640625 -119.1875 65.671875 -119.1875 C 81.628906 -119.1875 94.140625 -114.375 103.203125 -104.75 C 112.265625 -95.132812 116.796875 -81.304688 116.796875 -63.265625 C 116.796875 -62.066406 116.753906 -60.644531 116.671875 -59 C 116.585938 -57.351562 116.46875 -56.171875 116.3125 -55.453125 L 32.828125 -55.453125 C 32.910156 -47.828125 34.132812 -40.828125 36.5 -34.453125 C 38.863281 -28.078125 42.613281 -22.960938 47.75 -19.109375 C 52.882812 -15.265625 59.660156 -13.34375 68.078125 -13.34375 C 77.054688 -13.34375 84.070312 -15.445312 89.125 -19.65625 C 94.175781 -23.875 96.820312 -29.953125 97.0625 -37.890625 L 116.90625 -37.890625 C 116.664062 -29.628906 114.539062 -22.507812 110.53125 -16.53125 C 106.519531 -10.5625 100.90625 -5.953125 93.6875 -2.703125 C 86.476562 0.546875 77.941406 2.171875 68.078125 2.171875 Z M 32.953125 -70.125 L 96.9375 -70.125 C 96.695312 -81.03125 93.847656 -89.367188 88.390625 -95.140625 C 82.941406 -100.910156 75.367188 -103.796875 65.671875 -103.796875 C 55.890625 -103.796875 48.210938 -100.925781 42.640625 -95.1875 C 37.066406 -89.457031 33.835938 -81.101562 32.953125 -70.125 Z M 32.953125 -70.125 "/></g></g></g><g fill="#fafaf8" fill-opacity="1"><g transform="translate(142.913538, 232.266944)"><g><path d="M 53.046875 0 C 43.503906 0 36.207031 -1.5 31.15625 -4.5 C 26.101562 -7.507812 22.65625 -11.84375 20.8125 -17.5 C 18.96875 -23.15625 18.046875 -29.953125 18.046875 -37.890625 L 18.046875 -161.890625 L 38 -161.890625 L 38 -38.84375 C 38 -31.550781 38.941406 -25.976562 40.828125 -22.125 C 42.710938 -18.28125 47.222656 -16.359375 54.359375 -16.359375 L 59.78125 -16.359375 L 59.78125 0 Z M 53.046875 0 "/></g></g></g><g fill="#fafaf8" fill-opacity="1"><g transform="translate(219.088571, 232.266944)"><g><path d="M 49.546875 2.171875 C 42.816406 2.171875 36.664062 0.890625 31.09375 -1.671875 C 25.519531 -4.242188 21.066406 -8.035156 17.734375 -13.046875 C 14.410156 -18.054688 12.75 -24.253906 12.75 -31.640625 C 12.75 -42.140625 16.035156 -50.113281 22.609375 -55.5625 C 29.179688 -61.019531 38.484375 -64.726562 50.515625 -66.6875 C 62.546875 -68.65625 76.617188 -69.71875 92.734375 -69.875 L 92.734375 -78.0625 C 92.734375 -88.082031 90.242188 -94.957031 85.265625 -98.6875 C 80.296875 -102.414062 74.003906 -104.28125 66.390625 -104.28125 C 58.296875 -104.28125 51.476562 -102.234375 45.9375 -98.140625 C 40.40625 -94.054688 37.640625 -87.601562 37.640625 -78.78125 L 18.15625 -78.78125 C 18.15625 -88.40625 20.21875 -96.179688 24.34375 -102.109375 C 28.476562 -108.046875 34.175781 -112.375 41.4375 -115.09375 C 48.695312 -117.820312 57.015625 -119.1875 66.390625 -119.1875 C 72.398438 -119.1875 78.148438 -118.625 83.640625 -117.5 C 89.140625 -116.382812 94.070312 -114.34375 98.4375 -111.375 C 102.8125 -108.40625 106.28125 -104.253906 108.84375 -98.921875 C 111.414062 -93.597656 112.703125 -86.722656 112.703125 -78.296875 L 112.703125 0 L 93.9375 0 L 93.09375 -17.796875 C 87.71875 -11.785156 81.484375 -6.953125 74.390625 -3.296875 C 67.296875 0.347656 59.015625 2.171875 49.546875 2.171875 Z M 54.84375 -13.234375 C 62.863281 -13.234375 70.082031 -15.113281 76.5 -18.875 C 82.914062 -22.644531 88.285156 -27.421875 92.609375 -33.203125 L 92.609375 -57.015625 C 71.285156 -56.773438 55.988281 -54.769531 46.71875 -51 C 37.457031 -47.226562 32.828125 -41.050781 32.828125 -32.46875 C 32.828125 -26.613281 34.691406 -21.941406 38.421875 -18.453125 C 42.148438 -14.972656 47.625 -13.234375 54.84375 -13.234375 Z M 54.84375 -13.234375 "/></g></g></g><g fill="#fafaf8" fill-opacity="1"><g transform="translate(362.014142, 232.266944)"><g><path d="M 12.625 43.0625 L 12.625 26.46875 L 22.484375 26.46875 C 27.054688 26.46875 30.925781 25.242188 34.09375 22.796875 C 37.257812 20.347656 39.96875 16.273438 42.21875 10.578125 L 46.78125 0 L 0 -117.15625 L 21.296875 -117.15625 L 57.5 -21.296875 L 90.9375 -117.15625 L 111.375 -117.15625 L 67.359375 0 L 61.828125 14.1875 C 59.097656 21.164062 56.1875 26.78125 53.09375 31.03125 C 50.007812 35.28125 46.222656 38.347656 41.734375 40.234375 C 37.242188 42.117188 31.507812 43.0625 24.53125 43.0625 Z M 12.625 43.0625 "/></g></g></g></g></g></svg>