<svg xmlns="http://www.w3.org/2000/svg" xmlns:xlink="http://www.w3.org/1999/xlink" width="600" zoomAndPan="magnify" viewBox="0 0 450 225" height="300" preserveAspectRatio="xMidYMid meet" version="1.0"><defs><g/><clipPath id="69551a178a"><path d="M 21.75 93.761719 L 43.011719 93.761719 L 43.011719 115.023438 L 21.75 115.023438 Z M 21.75 93.761719 " clip-rule="nonzero"/></clipPath><clipPath id="653d9ab54c"><path d="M 32.378906 93.761719 C 26.507812 93.761719 21.75 98.523438 21.75 104.394531 C 21.75 110.265625 26.507812 115.023438 32.378906 115.023438 C 38.25 115.023438 43.011719 110.265625 43.011719 104.394531 C 43.011719 98.523438 38.25 93.761719 32.378906 93.761719 Z M 32.378906 93.761719 " clip-rule="nonzero"/></clipPath><clipPath id="ac2f741558"><path d="M 0.75 0.761719 L 22.011719 0.761719 L 22.011719 22.023438 L 0.75 22.023438 Z M 0.75 0.761719 " clip-rule="nonzero"/></clipPath><clipPath id="0bb8b9f013"><path d="M 11.378906 0.761719 C 5.507812 0.761719 0.75 5.523438 0.75 11.394531 C 0.75 17.265625 5.507812 22.023438 11.378906 22.023438 C 17.25 22.023438 22.011719 17.265625 22.011719 11.394531 C 22.011719 5.523438 17.25 0.761719 11.378906 0.761719 Z M 11.378906 0.761719 " clip-rule="nonzero"/></clipPath><clipPath id="71eeb0ed61"><rect x="0" width="23" y="0" height="23"/></clipPath><clipPath id="b4952e6a73"><path d="M 21.75 120.9375 L 43.011719 120.9375 L 43.011719 142.199219 L 21.75 142.199219 Z M 21.75 120.9375 " clip-rule="nonzero"/></clipPath><clipPath id="12b5795ea9"><path d="M 32.378906 120.9375 C 26.507812 120.9375 21.75 125.699219 21.75 131.570312 C 21.75 137.441406 26.507812 142.199219 32.378906 142.199219 C 38.25 142.199219 43.011719 137.441406 43.011719 131.570312 C 43.011719 125.699219 38.25 120.9375 32.378906 120.9375 Z M 32.378906 120.9375 " clip-rule="nonzero"/></clipPath><clipPath id="0fdfc54003"><path d="M 0.75 0.9375 L 22.011719 0.9375 L 22.011719 22.199219 L 0.75 22.199219 Z M 0.75 0.9375 " clip-rule="nonzero"/></clipPath><clipPath id="499840552a"><path d="M 11.378906 0.9375 C 5.507812 0.9375 0.75 5.699219 0.75 11.570312 C 0.75 17.441406 5.507812 22.199219 11.378906 22.199219 C 17.25 22.199219 22.011719 17.441406 22.011719 11.570312 C 22.011719 5.699219 17.25 0.9375 11.378906 0.9375 Z M 11.378906 0.9375 " clip-rule="nonzero"/></clipPath><clipPath id="ce0ff3753b"><rect x="0" width="23" y="0" height="23"/></clipPath><clipPath id="6d37af5654"><path d="M 21.75 148.113281 L 43.011719 148.113281 L 43.011719 169.375 L 21.75 169.375 Z M 21.75 148.113281 " clip-rule="nonzero"/></clipPath><clipPath id="a123b7e652"><path d="M 32.378906 148.113281 C 26.507812 148.113281 21.75 152.871094 21.75 158.742188 C 21.75 164.613281 26.507812 169.375 32.378906 169.375 C 38.25 169.375 43.011719 164.613281 43.011719 158.742188 C 43.011719 152.871094 38.25 148.113281 32.378906 148.113281 Z M 32.378906 148.113281 " clip-rule="nonzero"/></clipPath><clipPath id="02d5cbe315"><path d="M 0.75 0.113281 L 22.011719 0.113281 L 22.011719 21.375 L 0.75 21.375 Z M 0.75 0.113281 " clip-rule="nonzero"/></clipPath><clipPath id="b500c3df3c"><path d="M 11.378906 0.113281 C 5.507812 0.113281 0.75 4.871094 0.75 10.742188 C 0.75 16.613281 5.507812 21.375 11.378906 21.375 C 17.25 21.375 22.011719 16.613281 22.011719 10.742188 C 22.011719 4.871094 17.25 0.113281 11.378906 0.113281 Z M 11.378906 0.113281 " clip-rule="nonzero"/></clipPath><clipPath id="e04e0dfc15"><rect x="0" width="23" y="0" height="22"/></clipPath><clipPath id="104fe496dc"><path d="M 21.75 66.738281 L 68.507812 66.738281 L 68.507812 87.847656 L 21.75 87.847656 Z M 21.75 66.738281 " clip-rule="nonzero"/></clipPath><clipPath id="6ec748bb4a"><path d="M 32.304688 66.738281 L 57.914062 66.738281 C 63.742188 66.738281 68.46875 71.464844 68.46875 77.292969 C 68.46875 83.125 63.742188 87.847656 57.914062 87.847656 L 32.304688 87.847656 C 26.476562 87.847656 21.75 83.125 21.75 77.292969 C 21.75 71.464844 26.476562 66.738281 32.304688 66.738281 Z M 32.304688 66.738281 " clip-rule="nonzero"/></clipPath><clipPath id="2d90494fb7"><path d="M 0.75 0.738281 L 47.507812 0.738281 L 47.507812 21.847656 L 0.75 21.847656 Z M 0.75 0.738281 " clip-rule="nonzero"/></clipPath><clipPath id="f4f0dd59eb"><path d="M 11.304688 0.738281 L 36.914062 0.738281 C 42.742188 0.738281 47.46875 5.464844 47.46875 11.292969 C 47.46875 17.125 42.742188 21.847656 36.914062 21.847656 L 11.304688 21.847656 C 5.476562 21.847656 0.75 17.125 0.75 11.292969 C 0.75 5.464844 5.476562 0.738281 11.304688 0.738281 Z M 11.304688 0.738281 " clip-rule="nonzero"/></clipPath><clipPath id="68c890c8fd"><rect x="0" width="48" y="0" height="22"/></clipPath></defs><g clip-path="url(#69551a178a)"><g clip-path="url(#653d9ab54c)"><g transform="matrix(1, 0, 0, 1, 21, 93)"><g clip-path="url(#71eeb0ed61)"><g clip-path="url(#ac2f741558)"><g clip-path="url(#0bb8b9f013)"><path fill="#131521" d="M 0.75 0.761719 L 22.011719 0.761719 L 22.011719 22.023438 L 0.75 22.023438 Z M 0.75 0.761719 " fill-opacity="1" fill-rule="nonzero"/></g></g></g></g></g></g><g clip-path="url(#b4952e6a73)"><g clip-path="url(#12b5795ea9)"><g transform="matrix(1, 0, 0, 1, 21, 120)"><g clip-path="url(#ce0ff3753b)"><g clip-path="url(#0fdfc54003)"><g clip-path="url(#499840552a)"><path fill="#ff4a1a" d="M 0.75 0.9375 L 22.011719 0.9375 L 22.011719 22.199219 L 0.75 22.199219 Z M 0.75 0.9375 " fill-opacity="1" fill-rule="nonzero"/></g></g></g></g></g></g><g clip-path="url(#6d37af5654)"><g clip-path="url(#a123b7e652)"><g transform="matrix(1, 0, 0, 1, 21, 148)"><g clip-path="url(#e04e0dfc15)"><g clip-path="url(#02d5cbe315)"><g clip-path="url(#b500c3df3c)"><path fill="#131521" d="M 0.75 0.113281 L 22.011719 0.113281 L 22.011719 21.375 L 0.75 21.375 Z M 0.75 0.113281 " fill-opacity="1" fill-rule="nonzero"/></g></g></g></g></g></g><g clip-path="url(#104fe496dc)"><g clip-path="url(#6ec748bb4a)"><g transform="matrix(1, 0, 0, 1, 21, 66)"><g clip-path="url(#68c890c8fd)"><g clip-path="url(#2d90494fb7)"><g clip-path="url(#f4f0dd59eb)"><path fill="#131521" d="M 0.75 0.738281 L 47.507812 0.738281 L 47.507812 21.847656 L 0.75 21.847656 Z M 0.75 0.738281 " fill-opacity="1" fill-rule="nonzero"/></g></g></g></g></g></g><g fill="#131521" fill-opacity="1"><g transform="translate(72.632978, 167.987704)"><g><path d="M 51.859375 1.65625 C 42.140625 1.65625 34.179688 -0.375 27.984375 -4.4375 C 21.785156 -8.5 17.191406 -14.023438 14.203125 -21.015625 C 11.210938 -28.015625 9.71875 -35.878906 9.71875 -44.609375 C 9.71875 -53.710938 11.164062 -61.726562 14.0625 -68.65625 C 16.96875 -75.59375 21.394531 -81.015625 27.34375 -84.921875 C 33.300781 -88.835938 40.859375 -90.796875 50.015625 -90.796875 C 62.171875 -90.796875 71.695312 -87.128906 78.59375 -79.796875 C 85.5 -72.460938 88.953125 -61.925781 88.953125 -48.1875 C 88.953125 -47.269531 88.921875 -46.1875 88.859375 -44.9375 C 88.804688 -43.6875 88.71875 -42.785156 88.59375 -42.234375 L 25.015625 -42.234375 C 25.078125 -36.429688 26.003906 -31.101562 27.796875 -26.25 C 29.597656 -21.394531 32.453125 -17.5 36.359375 -14.5625 C 40.273438 -11.632812 45.441406 -10.171875 51.859375 -10.171875 C 58.691406 -10.171875 64.03125 -11.769531 67.875 -14.96875 C 71.726562 -18.175781 73.75 -22.804688 73.9375 -28.859375 L 89.046875 -28.859375 C 88.867188 -22.566406 87.25 -17.144531 84.1875 -12.59375 C 81.132812 -8.039062 76.859375 -4.523438 71.359375 -2.046875 C 65.867188 0.421875 59.367188 1.65625 51.859375 1.65625 Z M 25.109375 -53.40625 L 73.84375 -53.40625 C 73.65625 -61.71875 71.484375 -68.070312 67.328125 -72.46875 C 63.179688 -76.863281 57.410156 -79.0625 50.015625 -79.0625 C 42.566406 -79.0625 36.71875 -76.878906 32.46875 -72.515625 C 28.226562 -68.148438 25.773438 -61.78125 25.109375 -53.40625 Z M 25.109375 -53.40625 "/></g></g></g><g fill="#131521" fill-opacity="1"><g transform="translate(180.673634, 167.987704)"><g><path d="M 40.40625 0 C 33.132812 0 27.570312 -1.144531 23.71875 -3.4375 C 19.875 -5.726562 17.25 -9.023438 15.84375 -13.328125 C 14.4375 -17.628906 13.734375 -22.804688 13.734375 -28.859375 L 13.734375 -123.3125 L 28.953125 -123.3125 L 28.953125 -29.59375 C 28.953125 -24.03125 29.664062 -19.78125 31.09375 -16.84375 C 32.53125 -13.914062 35.96875 -12.453125 41.40625 -12.453125 L 45.53125 -12.453125 L 45.53125 0 Z M 40.40625 0 "/></g></g></g><g fill="#131521" fill-opacity="1"><g transform="translate(238.695257, 167.987704)"><g><path d="M 37.75 1.65625 C 32.613281 1.65625 27.921875 0.675781 23.671875 -1.28125 C 19.429688 -3.238281 16.046875 -6.125 13.515625 -9.9375 C 10.984375 -13.757812 9.71875 -18.476562 9.71875 -24.09375 C 9.71875 -32.09375 12.21875 -38.171875 17.21875 -42.328125 C 22.226562 -46.484375 29.3125 -49.304688 38.46875 -50.796875 C 47.632812 -52.296875 58.359375 -53.109375 70.640625 -53.234375 L 70.640625 -59.453125 C 70.640625 -67.085938 68.742188 -72.320312 64.953125 -75.15625 C 61.171875 -78 56.378906 -79.421875 50.578125 -79.421875 C 44.398438 -79.421875 39.203125 -77.863281 34.984375 -74.75 C 30.773438 -71.632812 28.671875 -66.71875 28.671875 -60 L 13.828125 -60 C 13.828125 -67.332031 15.398438 -73.257812 18.546875 -77.78125 C 21.691406 -82.300781 26.03125 -85.597656 31.5625 -87.671875 C 37.09375 -89.753906 43.429688 -90.796875 50.578125 -90.796875 C 55.148438 -90.796875 59.53125 -90.363281 63.71875 -89.5 C 67.90625 -88.644531 71.660156 -87.085938 74.984375 -84.828125 C 78.316406 -82.566406 80.957031 -79.40625 82.90625 -75.34375 C 84.863281 -71.289062 85.84375 -66.054688 85.84375 -59.640625 L 85.84375 0 L 71.546875 0 L 70.90625 -13.5625 C 66.8125 -8.976562 62.0625 -5.296875 56.65625 -2.515625 C 51.257812 0.265625 44.957031 1.65625 37.75 1.65625 Z M 41.78125 -10.078125 C 47.882812 -10.078125 53.378906 -11.507812 58.265625 -14.375 C 63.148438 -17.25 67.242188 -20.882812 70.546875 -25.28125 L 70.546875 -43.421875 C 54.296875 -43.242188 42.644531 -41.71875 35.59375 -38.84375 C 28.539062 -35.96875 25.015625 -31.265625 25.015625 -24.734375 C 25.015625 -20.273438 26.429688 -16.71875 29.265625 -14.0625 C 32.109375 -11.40625 36.28125 -10.078125 41.78125 -10.078125 Z M 41.78125 -10.078125 "/></g></g></g><g fill="#131521" fill-opacity="1"><g transform="translate(347.560403, 167.987704)"><g><path d="M 9.625 32.796875 L 9.625 20.15625 L 17.125 20.15625 C 20.613281 20.15625 23.5625 19.222656 25.96875 17.359375 C 28.382812 15.492188 30.445312 12.394531 32.15625 8.0625 L 35.640625 0 L 0 -89.234375 L 16.21875 -89.234375 L 43.796875 -16.21875 L 69.265625 -89.234375 L 84.828125 -89.234375 L 51.296875 0 L 47.09375 10.8125 C 45.007812 16.125 42.789062 20.394531 40.4375 23.625 C 38.09375 26.863281 35.207031 29.203125 31.78125 30.640625 C 28.363281 32.078125 24 32.796875 18.6875 32.796875 Z M 9.625 32.796875 "/></g></g></g></svg>