<svg xmlns="http://www.w3.org/2000/svg" xmlns:xlink="http://www.w3.org/1999/xlink" width="1080" zoomAndPan="magnify" viewBox="0 0 810 809.999993" height="1080" preserveAspectRatio="xMidYMid meet" version="1.0"><defs><g/><clipPath id="b6547167a2"><path d="M 136.753906 381.003906 L 164.667969 381.003906 L 164.667969 408.917969 L 136.753906 408.917969 Z M 136.753906 381.003906 " clip-rule="nonzero"/></clipPath><clipPath id="130bbafb6a"><path d="M 150.710938 381.003906 C 143.003906 381.003906 136.753906 387.25 136.753906 394.960938 C 136.753906 402.667969 143.003906 408.917969 150.710938 408.917969 C 158.421875 408.917969 164.667969 402.667969 164.667969 394.960938 C 164.667969 387.25 158.421875 381.003906 150.710938 381.003906 Z M 150.710938 381.003906 " clip-rule="nonzero"/></clipPath><clipPath id="d0175820e3"><path d="M 0.753906 0.00390625 L 28.667969 0.00390625 L 28.667969 27.917969 L 0.753906 27.917969 Z M 0.753906 0.00390625 " clip-rule="nonzero"/></clipPath><clipPath id="be4715525d"><path d="M 14.710938 0.00390625 C 7.003906 0.00390625 0.753906 6.25 0.753906 13.960938 C 0.753906 21.667969 7.003906 27.917969 14.710938 27.917969 C 22.421875 27.917969 28.667969 21.667969 28.667969 13.960938 C 28.667969 6.25 22.421875 0.00390625 14.710938 0.00390625 Z M 14.710938 0.00390625 " clip-rule="nonzero"/></clipPath><clipPath id="3b703edce1"><rect x="0" width="29" y="0" height="28"/></clipPath><clipPath id="af75fdd4c6"><path d="M 136.753906 416.679688 L 164.667969 416.679688 L 164.667969 444.59375 L 136.753906 444.59375 Z M 136.753906 416.679688 " clip-rule="nonzero"/></clipPath><clipPath id="dc7e44fea6"><path d="M 150.710938 416.679688 C 143.003906 416.679688 136.753906 422.929688 136.753906 430.636719 C 136.753906 438.347656 143.003906 444.59375 150.710938 444.59375 C 158.421875 444.59375 164.667969 438.347656 164.667969 430.636719 C 164.667969 422.929688 158.421875 416.679688 150.710938 416.679688 Z M 150.710938 416.679688 " clip-rule="nonzero"/></clipPath><clipPath id="4a1e876c09"><path d="M 0.753906 0.679688 L 28.667969 0.679688 L 28.667969 28.59375 L 0.753906 28.59375 Z M 0.753906 0.679688 " clip-rule="nonzero"/></clipPath><clipPath id="c0995d90ba"><path d="M 14.710938 0.679688 C 7.003906 0.679688 0.753906 6.929688 0.753906 14.636719 C 0.753906 22.347656 7.003906 28.59375 14.710938 28.59375 C 22.421875 28.59375 28.667969 22.347656 28.667969 14.636719 C 28.667969 6.929688 22.421875 0.679688 14.710938 0.679688 Z M 14.710938 0.679688 " clip-rule="nonzero"/></clipPath><clipPath id="17bfd480ce"><rect x="0" width="29" y="0" height="29"/></clipPath><clipPath id="45944a3a61"><path d="M 136.753906 452.359375 L 164.667969 452.359375 L 164.667969 480.273438 L 136.753906 480.273438 Z M 136.753906 452.359375 " clip-rule="nonzero"/></clipPath><clipPath id="3f448a86cc"><path d="M 150.710938 452.359375 C 143.003906 452.359375 136.753906 458.609375 136.753906 466.316406 C 136.753906 474.023438 143.003906 480.273438 150.710938 480.273438 C 158.421875 480.273438 164.667969 474.023438 164.667969 466.316406 C 164.667969 458.609375 158.421875 452.359375 150.710938 452.359375 Z M 150.710938 452.359375 " clip-rule="nonzero"/></clipPath><clipPath id="55fd5dd802"><path d="M 0.753906 0.359375 L 28.667969 0.359375 L 28.667969 28.273438 L 0.753906 28.273438 Z M 0.753906 0.359375 " clip-rule="nonzero"/></clipPath><clipPath id="5ac9de45b4"><path d="M 14.710938 0.359375 C 7.003906 0.359375 0.753906 6.609375 0.753906 14.316406 C 0.753906 22.023438 7.003906 28.273438 14.710938 28.273438 C 22.421875 28.273438 28.667969 22.023438 28.667969 14.316406 C 28.667969 6.609375 22.421875 0.359375 14.710938 0.359375 Z M 14.710938 0.359375 " clip-rule="nonzero"/></clipPath><clipPath id="a6117b6524"><rect x="0" width="29" y="0" height="29"/></clipPath><clipPath id="59e8a0a641"><path d="M 136.753906 345.519531 L 198.144531 345.519531 L 198.144531 373.238281 L 136.753906 373.238281 Z M 136.753906 345.519531 " clip-rule="nonzero"/></clipPath><clipPath id="c08ba8b728"><path d="M 150.613281 345.519531 L 184.234375 345.519531 C 191.886719 345.519531 198.09375 351.726562 198.09375 359.378906 C 198.09375 367.035156 191.886719 373.238281 184.234375 373.238281 L 150.613281 373.238281 C 142.960938 373.238281 136.753906 367.035156 136.753906 359.378906 C 136.753906 351.726562 142.960938 345.519531 150.613281 345.519531 Z M 150.613281 345.519531 " clip-rule="nonzero"/></clipPath><clipPath id="433e0ade24"><path d="M 0.753906 0.519531 L 62.144531 0.519531 L 62.144531 28.238281 L 0.753906 28.238281 Z M 0.753906 0.519531 " clip-rule="nonzero"/></clipPath><clipPath id="57847e0ef5"><path d="M 14.613281 0.519531 L 48.234375 0.519531 C 55.886719 0.519531 62.09375 6.726562 62.09375 14.378906 C 62.09375 22.035156 55.886719 28.238281 48.234375 28.238281 L 14.613281 28.238281 C 6.960938 28.238281 0.753906 22.035156 0.753906 14.378906 C 0.753906 6.726562 6.960938 0.519531 14.613281 0.519531 Z M 14.613281 0.519531 " clip-rule="nonzero"/></clipPath><clipPath id="307d394a03"><rect x="0" width="63" y="0" height="29"/></clipPath><clipPath id="f539add6e5"><rect x="0" width="488" y="0" height="302"/></clipPath></defs><g clip-path="url(#b6547167a2)"><g clip-path="url(#130bbafb6a)"><g transform="matrix(1, 0, 0, 1, 136, 381)"><g clip-path="url(#3b703edce1)"><g clip-path="url(#d0175820e3)"><g clip-path="url(#be4715525d)"><path fill="#131521" d="M 0.753906 0.00390625 L 28.667969 0.00390625 L 28.667969 27.917969 L 0.753906 27.917969 Z M 0.753906 0.00390625 " fill-opacity="1" fill-rule="nonzero"/></g></g></g></g></g></g><g clip-path="url(#af75fdd4c6)"><g clip-path="url(#dc7e44fea6)"><g transform="matrix(1, 0, 0, 1, 136, 416)"><g clip-path="url(#17bfd480ce)"><g clip-path="url(#4a1e876c09)"><g clip-path="url(#c0995d90ba)"><path fill="#ff4a1a" d="M 0.753906 0.679688 L 28.667969 0.679688 L 28.667969 28.59375 L 0.753906 28.59375 Z M 0.753906 0.679688 " fill-opacity="1" fill-rule="nonzero"/></g></g></g></g></g></g><g clip-path="url(#45944a3a61)"><g clip-path="url(#3f448a86cc)"><g transform="matrix(1, 0, 0, 1, 136, 452)"><g clip-path="url(#a6117b6524)"><g clip-path="url(#55fd5dd802)"><g clip-path="url(#5ac9de45b4)"><path fill="#131521" d="M 0.753906 0.359375 L 28.667969 0.359375 L 28.667969 28.273438 L 0.753906 28.273438 Z M 0.753906 0.359375 " fill-opacity="1" fill-rule="nonzero"/></g></g></g></g></g></g><g clip-path="url(#59e8a0a641)"><g clip-path="url(#c08ba8b728)"><g transform="matrix(1, 0, 0, 1, 136, 345)"><g clip-path="url(#307d394a03)"><g clip-path="url(#433e0ade24)"><g clip-path="url(#57847e0ef5)"><path fill="#131521" d="M 0.753906 0.519531 L 62.144531 0.519531 L 62.144531 28.238281 L 0.753906 28.238281 Z M 0.753906 0.519531 " fill-opacity="1" fill-rule="nonzero"/></g></g></g></g></g></g><g transform="matrix(1, 0, 0, 1, 202, 247)"><g clip-path="url(#f539add6e5)"><g fill="#131521" fill-opacity="1"><g transform="translate(1.570399, 231.9767)"><g><path d="M 68.078125 2.171875 C 55.328125 2.171875 44.878906 -0.492188 36.734375 -5.828125 C 28.597656 -11.160156 22.566406 -18.414062 18.640625 -27.59375 C 14.710938 -36.78125 12.75 -47.109375 12.75 -58.578125 C 12.75 -70.523438 14.648438 -81.046875 18.453125 -90.140625 C 22.265625 -99.242188 28.078125 -106.359375 35.890625 -111.484375 C 43.710938 -116.617188 53.640625 -119.1875 65.671875 -119.1875 C 81.628906 -119.1875 94.140625 -114.375 103.203125 -104.75 C 112.265625 -95.132812 116.796875 -81.304688 116.796875 -63.265625 C 116.796875 -62.066406 116.753906 -60.644531 116.671875 -59 C 116.585938 -57.351562 116.46875 -56.171875 116.3125 -55.453125 L 32.828125 -55.453125 C 32.910156 -47.828125 34.132812 -40.828125 36.5 -34.453125 C 38.863281 -28.078125 42.613281 -22.960938 47.75 -19.109375 C 52.882812 -15.265625 59.660156 -13.34375 68.078125 -13.34375 C 77.054688 -13.34375 84.070312 -15.445312 89.125 -19.65625 C 94.175781 -23.875 96.820312 -29.953125 97.0625 -37.890625 L 116.90625 -37.890625 C 116.664062 -29.628906 114.539062 -22.507812 110.53125 -16.53125 C 106.519531 -10.5625 100.90625 -5.953125 93.6875 -2.703125 C 86.476562 0.546875 77.941406 2.171875 68.078125 2.171875 Z M 32.953125 -70.125 L 96.9375 -70.125 C 96.695312 -81.03125 93.847656 -89.367188 88.390625 -95.140625 C 82.941406 -100.910156 75.367188 -103.796875 65.671875 -103.796875 C 55.890625 -103.796875 48.210938 -100.925781 42.640625 -95.1875 C 37.066406 -89.457031 33.835938 -81.101562 32.953125 -70.125 Z M 32.953125 -70.125 "/></g></g></g><g fill="#131521" fill-opacity="1"><g transform="translate(143.413538, 231.9767)"><g><path d="M 53.046875 0 C 43.503906 0 36.207031 -1.5 31.15625 -4.5 C 26.101562 -7.507812 22.65625 -11.84375 20.8125 -17.5 C 18.96875 -23.15625 18.046875 -29.953125 18.046875 -37.890625 L 18.046875 -161.890625 L 38 -161.890625 L 38 -38.84375 C 38 -31.550781 38.941406 -25.976562 40.828125 -22.125 C 42.710938 -18.28125 47.222656 -16.359375 54.359375 -16.359375 L 59.78125 -16.359375 L 59.78125 0 Z M 53.046875 0 "/></g></g></g><g fill="#131521" fill-opacity="1"><g transform="translate(219.588571, 231.9767)"><g><path d="M 49.546875 2.171875 C 42.816406 2.171875 36.664062 0.890625 31.09375 -1.671875 C 25.519531 -4.242188 21.066406 -8.035156 17.734375 -13.046875 C 14.410156 -18.054688 12.75 -24.253906 12.75 -31.640625 C 12.75 -42.140625 16.035156 -50.113281 22.609375 -55.5625 C 29.179688 -61.019531 38.484375 -64.726562 50.515625 -66.6875 C 62.546875 -68.65625 76.617188 -69.71875 92.734375 -69.875 L 92.734375 -78.0625 C 92.734375 -88.082031 90.242188 -94.957031 85.265625 -98.6875 C 80.296875 -102.414062 74.003906 -104.28125 66.390625 -104.28125 C 58.296875 -104.28125 51.476562 -102.234375 45.9375 -98.140625 C 40.40625 -94.054688 37.640625 -87.601562 37.640625 -78.78125 L 18.15625 -78.78125 C 18.15625 -88.40625 20.21875 -96.179688 24.34375 -102.109375 C 28.476562 -108.046875 34.175781 -112.375 41.4375 -115.09375 C 48.695312 -117.820312 57.015625 -119.1875 66.390625 -119.1875 C 72.398438 -119.1875 78.148438 -118.625 83.640625 -117.5 C 89.140625 -116.382812 94.070312 -114.34375 98.4375 -111.375 C 102.8125 -108.40625 106.28125 -104.253906 108.84375 -98.921875 C 111.414062 -93.597656 112.703125 -86.722656 112.703125 -78.296875 L 112.703125 0 L 93.9375 0 L 93.09375 -17.796875 C 87.71875 -11.785156 81.484375 -6.953125 74.390625 -3.296875 C 67.296875 0.347656 59.015625 2.171875 49.546875 2.171875 Z M 54.84375 -13.234375 C 62.863281 -13.234375 70.082031 -15.113281 76.5 -18.875 C 82.914062 -22.644531 88.285156 -27.421875 92.609375 -33.203125 L 92.609375 -57.015625 C 71.285156 -56.773438 55.988281 -54.769531 46.71875 -51 C 37.457031 -47.226562 32.828125 -41.050781 32.828125 -32.46875 C 32.828125 -26.613281 34.691406 -21.941406 38.421875 -18.453125 C 42.148438 -14.972656 47.625 -13.234375 54.84375 -13.234375 Z M 54.84375 -13.234375 "/></g></g></g><g fill="#131521" fill-opacity="1"><g transform="translate(362.514142, 231.9767)"><g><path d="M 12.625 43.0625 L 12.625 26.46875 L 22.484375 26.46875 C 27.054688 26.46875 30.925781 25.242188 34.09375 22.796875 C 37.257812 20.347656 39.96875 16.273438 42.21875 10.578125 L 46.78125 0 L 0 -117.15625 L 21.296875 -117.15625 L 57.5 -21.296875 L 90.9375 -117.15625 L 111.375 -117.15625 L 67.359375 0 L 61.828125 14.1875 C 59.097656 21.164062 56.1875 26.78125 53.09375 31.03125 C 50.007812 35.28125 46.222656 38.347656 41.734375 40.234375 C 37.242188 42.117188 31.507812 43.0625 24.53125 43.0625 Z M 12.625 43.0625 "/></g></g></g></g></g></svg>