<svg xmlns="http://www.w3.org/2000/svg" xmlns:xlink="http://www.w3.org/1999/xlink" width="540" zoomAndPan="magnify" viewBox="0 0 404.88 809.999993" height="1080" preserveAspectRatio="xMidYMid meet" version="1.0"><defs><clipPath id="83192d1f7d"><path d="M 0.398438 208.050781 L 163.359375 208.050781 L 163.359375 371.011719 L 0.398438 371.011719 Z M 0.398438 208.050781 " clip-rule="nonzero"/></clipPath><clipPath id="786fc0212e"><path d="M 81.878906 208.050781 C 36.875 208.050781 0.398438 244.53125 0.398438 289.53125 C 0.398438 334.53125 36.875 371.011719 81.878906 371.011719 C 126.878906 371.011719 163.359375 334.53125 163.359375 289.53125 C 163.359375 244.53125 126.878906 208.050781 81.878906 208.050781 Z M 81.878906 208.050781 " clip-rule="nonzero"/></clipPath><clipPath id="9932113485"><path d="M 0.398438 0.0507812 L 163.359375 0.0507812 L 163.359375 163.011719 L 0.398438 163.011719 Z M 0.398438 0.0507812 " clip-rule="nonzero"/></clipPath><clipPath id="55bca4afd5"><path d="M 81.878906 0.0507812 C 36.875 0.0507812 0.398438 36.53125 0.398438 81.53125 C 0.398438 126.53125 36.875 163.011719 81.878906 163.011719 C 126.878906 163.011719 163.359375 126.53125 163.359375 81.53125 C 163.359375 36.53125 126.878906 0.0507812 81.878906 0.0507812 Z M 81.878906 0.0507812 " clip-rule="nonzero"/></clipPath><clipPath id="6472c48e23"><rect x="0" width="164" y="0" height="164"/></clipPath><clipPath id="271dd2ca76"><path d="M 0.398438 416.335938 L 163.359375 416.335938 L 163.359375 579.300781 L 0.398438 579.300781 Z M 0.398438 416.335938 " clip-rule="nonzero"/></clipPath><clipPath id="725038becf"><path d="M 81.878906 416.335938 C 36.875 416.335938 0.398438 452.816406 0.398438 497.820312 C 0.398438 542.820312 36.875 579.300781 81.878906 579.300781 C 126.878906 579.300781 163.359375 542.820312 163.359375 497.820312 C 163.359375 452.816406 126.878906 416.335938 81.878906 416.335938 Z M 81.878906 416.335938 " clip-rule="nonzero"/></clipPath><clipPath id="f41bf180b8"><path d="M 0.398438 0.335938 L 163.359375 0.335938 L 163.359375 163.300781 L 0.398438 163.300781 Z M 0.398438 0.335938 " clip-rule="nonzero"/></clipPath><clipPath id="f0bc00ef3f"><path d="M 81.878906 0.335938 C 36.875 0.335938 0.398438 36.816406 0.398438 81.820312 C 0.398438 126.820312 36.875 163.300781 81.878906 163.300781 C 126.878906 163.300781 163.359375 126.820312 163.359375 81.820312 C 163.359375 36.816406 126.878906 0.335938 81.878906 0.335938 Z M 81.878906 0.335938 " clip-rule="nonzero"/></clipPath><clipPath id="a4e27a37c8"><rect x="0" width="164" y="0" height="164"/></clipPath><clipPath id="1875bf2328"><path d="M 0.398438 624.625 L 163.359375 624.625 L 163.359375 787.585938 L 0.398438 787.585938 Z M 0.398438 624.625 " clip-rule="nonzero"/></clipPath><clipPath id="95c70a44f2"><path d="M 81.878906 624.625 C 36.875 624.625 0.398438 661.105469 0.398438 706.105469 C 0.398438 751.105469 36.875 787.585938 81.878906 787.585938 C 126.878906 787.585938 163.359375 751.105469 163.359375 706.105469 C 163.359375 661.105469 126.878906 624.625 81.878906 624.625 Z M 81.878906 624.625 " clip-rule="nonzero"/></clipPath><clipPath id="4c537eb14f"><path d="M 0.398438 0.625 L 163.359375 0.625 L 163.359375 163.585938 L 0.398438 163.585938 Z M 0.398438 0.625 " clip-rule="nonzero"/></clipPath><clipPath id="6a5fb947cc"><path d="M 81.878906 0.625 C 36.875 0.625 0.398438 37.105469 0.398438 82.105469 C 0.398438 127.105469 36.875 163.585938 81.878906 163.585938 C 126.878906 163.585938 163.359375 127.105469 163.359375 82.105469 C 163.359375 37.105469 126.878906 0.625 81.878906 0.625 Z M 81.878906 0.625 " clip-rule="nonzero"/></clipPath><clipPath id="5d18bd7580"><rect x="0" width="164" y="0" height="164"/></clipPath><clipPath id="2f98817b0e"><path d="M 0.398438 0.914062 L 358.78125 0.914062 L 358.78125 162.722656 L 0.398438 162.722656 Z M 0.398438 0.914062 " clip-rule="nonzero"/></clipPath><clipPath id="b5ef7bdfb8"><path d="M 75.375 0.914062 L 283.503906 0.914062 C 303.390625 0.914062 322.460938 8.8125 336.523438 22.875 C 350.582031 36.933594 358.484375 56.003906 358.484375 75.890625 L 358.484375 87.746094 C 358.484375 107.628906 350.582031 126.703125 336.523438 140.761719 C 322.460938 154.824219 303.390625 162.722656 283.503906 162.722656 L 75.375 162.722656 C 55.488281 162.722656 36.417969 154.824219 22.355469 140.761719 C 8.296875 126.703125 0.398438 107.628906 0.398438 87.746094 L 0.398438 75.890625 C 0.398438 56.003906 8.296875 36.933594 22.355469 22.875 C 36.417969 8.8125 55.488281 0.914062 75.375 0.914062 Z M 75.375 0.914062 " clip-rule="nonzero"/></clipPath><clipPath id="3ae9c22688"><path d="M 0.398438 0.914062 L 358.488281 0.914062 L 358.488281 162.722656 L 0.398438 162.722656 Z M 0.398438 0.914062 " clip-rule="nonzero"/></clipPath><clipPath id="dc01d0a2e6"><path d="M 75.375 0.914062 L 283.503906 0.914062 C 303.390625 0.914062 322.460938 8.8125 336.523438 22.875 C 350.582031 36.933594 358.484375 56.003906 358.484375 75.890625 L 358.484375 87.746094 C 358.484375 107.628906 350.582031 126.703125 336.523438 140.761719 C 322.460938 154.824219 303.390625 162.722656 283.503906 162.722656 L 75.375 162.722656 C 55.488281 162.722656 36.417969 154.824219 22.355469 140.761719 C 8.296875 126.703125 0.398438 107.628906 0.398438 87.746094 L 0.398438 75.890625 C 0.398438 56.003906 8.296875 36.933594 22.355469 22.875 C 36.417969 8.8125 55.488281 0.914062 75.375 0.914062 Z M 75.375 0.914062 " clip-rule="nonzero"/></clipPath><clipPath id="d326e3149c"><rect x="0" width="359" y="0" height="163"/></clipPath><clipPath id="1f7a451223"><rect x="0" width="359" y="0" height="788"/></clipPath></defs><g transform="matrix(1, 0, 0, 1, 23, 10)"><g clip-path="url(#1f7a451223)"><g clip-path="url(#83192d1f7d)"><g clip-path="url(#786fc0212e)"><g transform="matrix(1, 0, 0, 1, 0, 208)"><g clip-path="url(#6472c48e23)"><g clip-path="url(#9932113485)"><g clip-path="url(#55bca4afd5)"><path fill="#131521" d="M 0.398438 0.0507812 L 163.359375 0.0507812 L 163.359375 163.011719 L 0.398438 163.011719 Z M 0.398438 0.0507812 " fill-opacity="1" fill-rule="nonzero"/></g></g></g></g></g></g><g clip-path="url(#271dd2ca76)"><g clip-path="url(#725038becf)"><g transform="matrix(1, 0, 0, 1, 0, 416)"><g clip-path="url(#a4e27a37c8)"><g clip-path="url(#f41bf180b8)"><g clip-path="url(#f0bc00ef3f)"><path fill="#ff4a1a" d="M 0.398438 0.335938 L 163.359375 0.335938 L 163.359375 163.300781 L 0.398438 163.300781 Z M 0.398438 0.335938 " fill-opacity="1" fill-rule="nonzero"/></g></g></g></g></g></g><g clip-path="url(#1875bf2328)"><g clip-path="url(#95c70a44f2)"><g transform="matrix(1, 0, 0, 1, 0, 624)"><g clip-path="url(#5d18bd7580)"><g clip-path="url(#4c537eb14f)"><g clip-path="url(#6a5fb947cc)"><path fill="#131521" d="M 0.398438 0.625 L 163.359375 0.625 L 163.359375 163.585938 L 0.398438 163.585938 Z M 0.398438 0.625 " fill-opacity="1" fill-rule="nonzero"/></g></g></g></g></g></g><g clip-path="url(#2f98817b0e)"><g clip-path="url(#b5ef7bdfb8)"><g transform="matrix(1, 0, 0, 1, 0, 0.000000000000056843)"><g clip-path="url(#d326e3149c)"><g clip-path="url(#3ae9c22688)"><g clip-path="url(#dc01d0a2e6)"><path fill="#131521" d="M 0.398438 0.914062 L 358.78125 0.914062 L 358.78125 162.722656 L 0.398438 162.722656 Z M 0.398438 0.914062 " fill-opacity="1" fill-rule="nonzero"/></g></g></g></g></g></g></g></g></svg>