<svg xmlns="http://www.w3.org/2000/svg" xmlns:xlink="http://www.w3.org/1999/xlink" width="1200" zoomAndPan="magnify" viewBox="0 0 900 472.499986" height="630" preserveAspectRatio="xMidYMid meet" version="1.0"><defs><g/><clipPath id="3e7c3c1f07"><path d="M 0.476562 0 L 899.523438 0 L 899.523438 472 L 0.476562 472 Z M 0.476562 0 " clip-rule="nonzero"/></clipPath><clipPath id="c320ea0673"><path d="M 0.414062 0.542969 L 765.441406 0.542969 L 765.441406 439.519531 L 0.414062 439.519531 Z M 0.414062 0.542969 " clip-rule="nonzero"/></clipPath><clipPath id="260087577c"><rect x="0" width="766" y="0" height="440"/></clipPath><clipPath id="5ba3737cdd"><path d="M 79 143 L 416 143 L 416 439.519531 L 79 439.519531 Z M 79 143 " clip-rule="nonzero"/></clipPath><clipPath id="454ba77f31"><rect x="0" width="766" y="0" height="440"/></clipPath></defs><g clip-path="url(#3e7c3c1f07)"></g><g transform="matrix(1, 0, 0, 1, 60, 16)"><g clip-path="url(#454ba77f31)"><g clip-path="url(#c320ea0673)"><g transform="matrix(1, 0, 0, 1, -0.000000000000021316, -0.000000000000003553)"><g clip-path="url(#260087577c)"><g fill="#050d16" fill-opacity="1"><g transform="translate(3.09825, 311.250143)"><g><path d="M 94.84375 20.5625 C 90.519531 20.5625 87.660156 19.351562 86.265625 16.9375 C 84.867188 14.53125 84.171875 11.675781 84.171875 8.375 C 84.171875 5.582031 84.488281 2.726562 85.125 -0.1875 C 85.757812 -3.113281 86.457031 -5.59375 87.21875 -7.625 C 88.738281 -12.445312 90.320312 -17.269531 91.96875 -22.09375 C 93.625 -26.914062 95.21875 -30.847656 96.75 -33.890625 C 97.757812 -36.429688 98.707031 -39.035156 99.59375 -41.703125 C 100.488281 -44.367188 101.441406 -46.972656 102.453125 -49.515625 C 103.210938 -51.296875 104.035156 -53.132812 104.921875 -55.03125 C 105.816406 -56.9375 106.390625 -58.78125 106.640625 -60.5625 C 106.898438 -61.320312 107.03125 -62.207031 107.03125 -63.21875 C 107.03125 -64.488281 106.898438 -65.695312 106.640625 -66.84375 C 106.390625 -67.988281 106.265625 -69.195312 106.265625 -70.46875 C 106.515625 -74.53125 107.84375 -77.445312 110.25 -79.21875 C 112.664062 -81 115.019531 -83.160156 117.3125 -85.703125 C 119.851562 -88.742188 121.945312 -92.234375 123.59375 -96.171875 C 125.238281 -100.109375 126.953125 -103.851562 128.734375 -107.40625 C 132.285156 -114.519531 135.96875 -121.691406 139.78125 -128.921875 C 143.59375 -136.160156 147.398438 -143.335938 151.203125 -150.453125 C 154.765625 -156.796875 158.765625 -163.265625 163.203125 -169.859375 C 167.648438 -176.460938 172.539062 -182.429688 177.875 -187.765625 C 179.90625 -189.546875 182.0625 -191.195312 184.34375 -192.71875 C 186.625 -194.25 189.164062 -195.015625 191.96875 -195.015625 C 195.257812 -195.015625 197.984375 -193.929688 200.140625 -191.765625 C 202.304688 -189.609375 203.390625 -187.132812 203.390625 -184.34375 C 203.390625 -180.28125 201.609375 -176.851562 198.046875 -174.0625 C 194.492188 -171.269531 191.578125 -168.476562 189.296875 -165.6875 C 185.234375 -161.363281 181.675781 -156.789062 178.625 -151.96875 C 172.789062 -142.820312 167.269531 -133.296875 162.0625 -123.390625 C 156.851562 -113.492188 151.96875 -103.59375 147.40625 -93.6875 C 146.894531 -92.675781 146.445312 -91.789062 146.0625 -91.03125 C 145.6875 -90.269531 145.5 -89.507812 145.5 -88.75 C 145.5 -87.726562 146.382812 -87.21875 148.15625 -87.21875 C 151.96875 -87.21875 155.710938 -87.660156 159.390625 -88.546875 C 163.078125 -89.441406 166.695312 -90.269531 170.25 -91.03125 C 177.101562 -93.0625 183.957031 -95.535156 190.8125 -98.453125 C 197.675781 -101.378906 204.28125 -104.617188 210.625 -108.171875 C 216.96875 -111.722656 222.929688 -115.71875 228.515625 -120.15625 C 234.109375 -124.601562 238.9375 -129.75 243 -135.59375 C 246.550781 -140.664062 249.660156 -146.1875 252.328125 -152.15625 C 254.992188 -158.125 256.328125 -164.15625 256.328125 -170.25 C 256.328125 -179.644531 253.40625 -187.007812 247.5625 -192.34375 C 241.726562 -197.675781 235.128906 -201.738281 227.765625 -204.53125 C 215.316406 -209.101562 202.75 -211.390625 190.0625 -211.390625 C 181.675781 -211.390625 173.289062 -210.691406 164.90625 -209.296875 C 156.53125 -207.898438 148.28125 -206.1875 140.15625 -204.15625 C 132.289062 -202.125 124.613281 -199.707031 117.125 -196.90625 C 109.632812 -194.113281 102.585938 -190.6875 95.984375 -186.625 C 89.628906 -182.5625 83.40625 -177.738281 77.3125 -172.15625 C 71.21875 -166.570312 66.394531 -160.351562 62.84375 -153.5 C 61.832031 -150.957031 60.941406 -148.222656 60.171875 -145.296875 C 59.410156 -142.378906 59.03125 -139.523438 59.03125 -136.734375 C 59.03125 -133.179688 59.726562 -129.816406 61.125 -126.640625 C 62.519531 -123.460938 65 -121.113281 68.5625 -119.59375 C 70.082031 -118.832031 71.601562 -118.195312 73.125 -117.6875 C 74.644531 -117.175781 76.039062 -116.671875 77.3125 -116.171875 C 79.851562 -114.898438 81.757812 -113.375 83.03125 -111.59375 C 84.550781 -109.820312 85.3125 -107.921875 85.3125 -105.890625 C 85.3125 -103.347656 84.164062 -100.929688 81.875 -98.640625 C 79.59375 -96.359375 76.421875 -95.21875 72.359375 -95.21875 C 67.035156 -95.21875 61.707031 -96.929688 56.375 -100.359375 C 51.039062 -103.785156 46.976562 -107.273438 44.1875 -110.828125 C 41.132812 -114.890625 38.972656 -119.207031 37.703125 -123.78125 C 36.429688 -128.351562 35.796875 -132.925781 35.796875 -137.5 C 35.796875 -147.394531 38.398438 -157.101562 43.609375 -166.625 C 48.816406 -176.15625 54.972656 -184.21875 62.078125 -190.8125 C 67.671875 -196.144531 73.765625 -200.84375 80.359375 -204.90625 C 86.960938 -208.96875 93.820312 -212.523438 100.9375 -215.578125 C 107.789062 -218.878906 114.898438 -221.671875 122.265625 -223.953125 C 129.628906 -226.234375 136.992188 -228.140625 144.359375 -229.671875 C 151.460938 -230.941406 158.820312 -232.082031 166.4375 -233.09375 C 174.0625 -234.113281 181.679688 -234.625 189.296875 -234.625 C 197.171875 -234.625 204.914062 -234.050781 212.53125 -232.90625 C 220.144531 -231.757812 227.507812 -229.789062 234.625 -227 C 240.96875 -224.71875 246.992188 -221.796875 252.703125 -218.234375 C 258.421875 -214.679688 263.4375 -210.113281 267.75 -204.53125 C 271.3125 -199.445312 274.039062 -193.734375 275.9375 -187.390625 C 277.84375 -181.046875 278.796875 -174.695312 278.796875 -168.34375 C 278.796875 -159.707031 277.335938 -151.644531 274.421875 -144.15625 C 271.503906 -136.664062 267.628906 -129.617188 262.796875 -123.015625 C 258.234375 -117.179688 253.222656 -111.851562 247.765625 -107.03125 C 242.304688 -102.207031 236.523438 -97.757812 230.421875 -93.6875 C 226.867188 -91.40625 223.25 -89.3125 219.5625 -87.40625 C 215.882812 -85.5 212.144531 -83.660156 208.34375 -81.890625 C 204.78125 -80.367188 201.097656 -78.84375 197.296875 -77.3125 C 195.773438 -76.550781 194.25 -75.914062 192.71875 -75.40625 C 191.195312 -74.90625 189.925781 -74.398438 188.90625 -73.890625 C 187.382812 -73.378906 186.625 -72.867188 186.625 -72.359375 C 186.625 -71.597656 187.003906 -70.835938 187.765625 -70.078125 C 189.296875 -68.804688 190.757812 -67.597656 192.15625 -66.453125 C 193.550781 -65.316406 194.882812 -64.113281 196.15625 -62.84375 C 201.738281 -57.769531 206.816406 -51.929688 211.390625 -45.328125 C 215.703125 -39.234375 219.570312 -32.566406 223 -25.328125 C 226.425781 -18.085938 228.898438 -10.785156 230.421875 -3.421875 C 230.679688 -2.160156 230.875 -0.894531 231 0.375 C 231.125 1.644531 231.1875 3.046875 231.1875 4.578125 C 231.1875 6.347656 230.929688 8.117188 230.421875 9.890625 C 229.921875 11.671875 229.035156 13.195312 227.765625 14.46875 C 225.472656 16.757812 222.804688 17.90625 219.765625 17.90625 C 215.953125 17.90625 212.90625 16.507812 210.625 13.71875 C 208.34375 10.914062 207.007812 7.609375 206.625 3.796875 C 206.238281 -0.00390625 205.539062 -3.554688 204.53125 -6.859375 C 202.5 -13.960938 199.328125 -20.941406 195.015625 -27.796875 C 190.941406 -34.660156 186.238281 -40.882812 180.90625 -46.46875 C 175.582031 -52.050781 169.363281 -56.75 162.25 -60.5625 C 159.207031 -62.082031 156.285156 -63.097656 153.484375 -63.609375 C 150.691406 -64.117188 147.648438 -64.375 144.359375 -64.375 C 142.066406 -64.375 139.523438 -64.117188 136.734375 -63.609375 C 133.941406 -63.097656 131.910156 -61.703125 130.640625 -59.421875 C 128.609375 -56.117188 126.957031 -52.4375 125.6875 -48.375 C 124.414062 -44.3125 123.144531 -40.5 121.875 -36.9375 C 120.863281 -34.65625 119.660156 -31.738281 118.265625 -28.1875 C 116.867188 -24.632812 115.535156 -20.953125 114.265625 -17.140625 C 112.992188 -13.328125 111.722656 -9.578125 110.453125 -5.890625 C 109.179688 -2.210938 108.164062 1.65625 107.40625 5.71875 C 106.644531 9.019531 105.375 12.316406 103.59375 15.609375 C 101.820312 18.910156 98.90625 20.5625 94.84375 20.5625 Z M 94.84375 20.5625 "/></g></g></g><g fill="#050d16" fill-opacity="1"><g transform="translate(256.352308, 311.250143)"><g><path d="M 46.078125 0.765625 C 38.460938 0.765625 31.226562 -0.753906 24.375 -3.796875 C 17.519531 -6.847656 12.441406 -12.3125 9.140625 -20.1875 C 7.359375 -25.007812 6.46875 -30.210938 6.46875 -35.796875 C 6.46875 -43.921875 8.179688 -51.984375 11.609375 -59.984375 C 15.046875 -67.984375 18.796875 -75.285156 22.859375 -81.890625 C 28.179688 -90.773438 34.648438 -99.148438 42.265625 -107.015625 C 49.890625 -114.890625 58.523438 -120.859375 68.171875 -124.921875 C 70.460938 -125.941406 73.066406 -126.703125 75.984375 -127.203125 C 78.898438 -127.710938 81.628906 -127.96875 84.171875 -127.96875 C 90.265625 -127.96875 95.53125 -126 99.96875 -122.0625 C 104.414062 -118.132812 106.640625 -112.992188 106.640625 -106.640625 C 106.640625 -102.328125 105.6875 -98.007812 103.78125 -93.6875 C 101.882812 -89.375 99.789062 -85.441406 97.5 -81.890625 C 94.457031 -77.828125 90.90625 -74.082031 86.84375 -70.65625 C 82.78125 -67.226562 78.585938 -64.117188 74.265625 -61.328125 C 71.984375 -59.796875 69.695312 -58.332031 67.40625 -56.9375 C 65.125 -55.539062 62.710938 -54.335938 60.171875 -53.328125 C 57.640625 -52.304688 55.039062 -51.414062 52.375 -50.65625 C 49.707031 -49.894531 47.101562 -49.132812 44.5625 -48.375 C 42.28125 -47.863281 39.738281 -47.226562 36.9375 -46.46875 C 34.144531 -45.707031 31.863281 -44.5625 30.09375 -43.03125 C 28.5625 -41.507812 27.796875 -39.097656 27.796875 -35.796875 C 27.796875 -29.453125 29.765625 -25.132812 33.703125 -22.84375 C 37.640625 -20.5625 41.894531 -19.421875 46.46875 -19.421875 C 52.8125 -19.421875 59.410156 -20.691406 66.265625 -23.234375 C 73.128906 -25.773438 79.351562 -28.820312 84.9375 -32.375 C 89.507812 -35.164062 93.632812 -38.273438 97.3125 -41.703125 C 101 -45.128906 104.617188 -48.625 108.171875 -52.1875 C 111.972656 -55.988281 115.523438 -60.109375 118.828125 -64.546875 C 122.128906 -68.992188 125.175781 -73.503906 127.96875 -78.078125 C 129.238281 -80.109375 130.507812 -82.265625 131.78125 -84.546875 C 133.050781 -86.835938 134.828125 -88.488281 137.109375 -89.5 C 138.640625 -90.257812 140.164062 -90.640625 141.6875 -90.640625 C 144.726562 -90.640625 147.265625 -89.5 149.296875 -87.21875 C 150.316406 -85.945312 150.828125 -84.296875 150.828125 -82.265625 C 150.828125 -80.742188 150.570312 -79.410156 150.0625 -78.265625 C 149.550781 -77.128906 148.914062 -75.796875 148.15625 -74.265625 C 146.882812 -71.984375 145.359375 -69.507812 143.578125 -66.84375 C 141.804688 -64.175781 140.160156 -61.703125 138.640625 -59.421875 C 135.585938 -54.597656 132.472656 -50.085938 129.296875 -45.890625 C 126.128906 -41.703125 122.640625 -37.703125 118.828125 -33.890625 C 111.210938 -26.023438 102.644531 -19.171875 93.125 -13.328125 C 83.601562 -7.492188 73.507812 -3.429688 62.84375 -1.140625 C 57.257812 0.128906 51.671875 0.765625 46.078125 0.765625 Z M 43.03125 -68.171875 C 45.570312 -68.171875 48.238281 -68.867188 51.03125 -70.265625 C 53.832031 -71.660156 56.25 -72.867188 58.28125 -73.890625 C 60.5625 -75.160156 62.71875 -76.617188 64.75 -78.265625 C 66.78125 -79.921875 68.6875 -81.507812 70.46875 -83.03125 C 71.226562 -83.789062 72.875 -85.441406 75.40625 -87.984375 C 77.945312 -90.523438 80.359375 -93.253906 82.640625 -96.171875 C 84.929688 -99.085938 86.078125 -101.5625 86.078125 -103.59375 C 86.078125 -105.125 85.628906 -106.078125 84.734375 -106.453125 C 83.847656 -106.835938 82.898438 -107.03125 81.890625 -107.03125 C 79.859375 -107.03125 77.507812 -106.457031 74.84375 -105.3125 C 72.175781 -104.164062 69.953125 -102.957031 68.171875 -101.6875 C 65.890625 -100.164062 63.796875 -98.644531 61.890625 -97.125 C 59.984375 -95.601562 58.015625 -93.828125 55.984375 -91.796875 C 52.429688 -88.234375 49.003906 -84.039062 45.703125 -79.21875 C 45.191406 -78.457031 44.300781 -77.125 43.03125 -75.21875 C 41.769531 -73.3125 41.140625 -71.726562 41.140625 -70.46875 C 41.140625 -68.9375 41.769531 -68.171875 43.03125 -68.171875 Z M 43.03125 -68.171875 "/></g></g></g><g fill="#050d16" fill-opacity="1"><g transform="translate(363.366779, 311.250143)"><g><path d="M 52.9375 0 C 47.863281 0 43.613281 -0.632812 40.1875 -1.90625 C 36.757812 -3.175781 33.265625 -5.585938 29.703125 -9.140625 C 24.628906 -14.222656 21.140625 -20.441406 19.234375 -27.796875 C 17.328125 -35.160156 16.503906 -42.398438 16.765625 -49.515625 C 16.765625 -55.359375 17.332031 -61.257812 18.46875 -67.21875 C 19.613281 -73.1875 20.820312 -79.09375 22.09375 -84.9375 C 25.132812 -98.644531 29.066406 -111.722656 33.890625 -124.171875 C 36.179688 -130.265625 38.53125 -136.421875 40.9375 -142.640625 C 43.351562 -148.859375 46.210938 -155.015625 49.515625 -161.109375 C 51.035156 -163.898438 52.492188 -166.753906 53.890625 -169.671875 C 55.285156 -172.597656 56.75 -175.582031 58.28125 -178.625 C 60.050781 -181.675781 62.140625 -185.039062 64.546875 -188.71875 C 66.960938 -192.40625 69.0625 -195.644531 70.84375 -198.4375 C 73.632812 -202.75 77.25 -207.757812 81.6875 -213.46875 C 86.132812 -219.1875 91.023438 -224.140625 96.359375 -228.328125 C 101.691406 -232.523438 107.28125 -234.625 113.125 -234.625 C 118.457031 -234.625 123.28125 -232.460938 127.59375 -228.140625 C 129.875 -226.109375 131.457031 -223.632812 132.34375 -220.71875 C 133.238281 -217.800781 133.6875 -214.816406 133.6875 -211.765625 C 133.6875 -205.671875 132.609375 -199.257812 130.453125 -192.53125 C 128.296875 -185.800781 125.945312 -179.390625 123.40625 -173.296875 C 120.863281 -167.203125 118.003906 -161.109375 114.828125 -155.015625 C 111.660156 -148.921875 108.425781 -143.082031 105.125 -137.5 C 98.519531 -126.070312 91.15625 -115.28125 83.03125 -105.125 C 74.90625 -94.96875 66.398438 -85.0625 57.515625 -75.40625 C 55.484375 -73.125 53.320312 -70.835938 51.03125 -68.546875 C 48.75 -66.265625 46.46875 -63.984375 44.1875 -61.703125 C 41.644531 -59.671875 39.738281 -57.445312 38.46875 -55.03125 C 37.195312 -52.625 36.4375 -49.640625 36.1875 -46.078125 C 36.1875 -40.242188 37.132812 -34.34375 39.03125 -28.375 C 40.9375 -22.40625 45.320312 -19.421875 52.1875 -19.421875 C 58.28125 -19.421875 64.117188 -21.769531 69.703125 -26.46875 C 75.285156 -31.164062 79.984375 -35.671875 83.796875 -39.984375 C 88.109375 -44.816406 91.914062 -49.707031 95.21875 -54.65625 C 98.519531 -59.601562 101.820312 -65 105.125 -70.84375 C 106.644531 -73.382812 107.972656 -75.734375 109.109375 -77.890625 C 110.253906 -80.046875 111.59375 -82.519531 113.125 -85.3125 C 114.644531 -87.851562 116.925781 -89.125 119.96875 -89.125 C 122.769531 -89.125 125.1875 -88.171875 127.21875 -86.265625 C 129.25 -84.359375 130.265625 -82.140625 130.265625 -79.609375 C 130.265625 -77.578125 129.753906 -75.546875 128.734375 -73.515625 C 127.722656 -71.484375 126.707031 -69.578125 125.6875 -67.796875 C 124.414062 -64.742188 122.953125 -61.757812 121.296875 -58.84375 C 119.648438 -55.925781 117.8125 -53.070312 115.78125 -50.28125 C 111.21875 -42.65625 105.757812 -34.96875 99.40625 -27.21875 C 93.0625 -19.476562 86.015625 -13.003906 78.265625 -7.796875 C 70.523438 -2.597656 62.082031 0 52.9375 0 Z M 46.46875 -91.796875 C 47.226562 -91.796875 48.050781 -92.363281 48.9375 -93.5 C 49.832031 -94.644531 50.53125 -95.472656 51.03125 -95.984375 C 52.050781 -96.992188 52.941406 -98.070312 53.703125 -99.21875 C 54.460938 -100.363281 55.351562 -101.441406 56.375 -102.453125 C 62.207031 -109.816406 67.914062 -117.242188 73.5 -124.734375 C 79.09375 -132.222656 84.300781 -140.03125 89.125 -148.15625 C 91.664062 -152.476562 94.332031 -157.238281 97.125 -162.4375 C 99.914062 -167.644531 102.328125 -172.535156 104.359375 -177.109375 C 106.390625 -181.679688 108.289062 -186.25 110.0625 -190.8125 C 111.84375 -195.382812 112.734375 -200.460938 112.734375 -206.046875 C 112.734375 -208.847656 111.847656 -210.25 110.078125 -210.25 C 109.054688 -210.25 107.910156 -209.738281 106.640625 -208.71875 C 104.867188 -207.445312 103.21875 -205.984375 101.6875 -204.328125 C 100.164062 -202.679688 98.769531 -201.097656 97.5 -199.578125 C 94.707031 -196.023438 91.976562 -192.28125 89.3125 -188.34375 C 86.644531 -184.40625 84.039062 -180.40625 81.5 -176.34375 C 76.175781 -168.46875 71.414062 -160.273438 67.21875 -151.765625 C 63.03125 -143.265625 59.160156 -134.570312 55.609375 -125.6875 C 54.085938 -121.375 52.5 -117.3125 50.84375 -113.5 C 49.195312 -109.6875 47.738281 -105.625 46.46875 -101.3125 C 45.957031 -99.53125 45.507812 -98.128906 45.125 -97.109375 C 44.75 -96.097656 44.5625 -95.085938 44.5625 -94.078125 C 44.5625 -92.554688 45.195312 -91.796875 46.46875 -91.796875 Z M 46.46875 -91.796875 "/></g></g></g><g fill="#050d16" fill-opacity="1"><g transform="translate(450.958677, 311.250143)"><g><path d="M 30.84375 0.765625 C 24.5 0.765625 19.171875 -0.882812 14.859375 -4.1875 C 11.296875 -6.976562 8.941406 -10.46875 7.796875 -14.65625 C 6.660156 -18.851562 6.09375 -23.109375 6.09375 -27.421875 C 6.09375 -39.359375 8.441406 -51.101562 13.140625 -62.65625 C 17.835938 -74.207031 23.992188 -84.425781 31.609375 -93.3125 C 35.421875 -98.132812 39.738281 -102.515625 44.5625 -106.453125 C 49.382812 -110.390625 54.460938 -113.878906 59.796875 -116.921875 C 65.128906 -119.972656 70.015625 -122.066406 74.453125 -123.203125 C 78.898438 -124.347656 84.171875 -124.921875 90.265625 -124.921875 C 93.054688 -124.921875 95.785156 -124.539062 98.453125 -123.78125 C 101.117188 -123.019531 103.722656 -122.640625 106.265625 -122.640625 C 108.546875 -122.640625 110.578125 -123.082031 112.359375 -123.96875 C 114.140625 -124.863281 115.914062 -125.3125 117.6875 -125.3125 C 120.226562 -125.3125 122.320312 -124.421875 123.96875 -122.640625 C 125.625 -120.859375 126.453125 -118.828125 126.453125 -116.546875 C 126.453125 -113.503906 125.625 -110.332031 123.96875 -107.03125 C 122.320312 -103.726562 120.988281 -100.929688 119.96875 -98.640625 C 117.9375 -93.816406 115.78125 -89.054688 113.5 -84.359375 C 111.21875 -79.660156 109.3125 -74.773438 107.78125 -69.703125 C 106.769531 -65.890625 105.691406 -61.820312 104.546875 -57.5 C 103.410156 -53.1875 102.84375 -49 102.84375 -44.9375 C 102.84375 -39.863281 103.539062 -36.375 104.9375 -34.46875 C 106.332031 -32.5625 108.046875 -31.609375 110.078125 -31.609375 C 112.867188 -31.609375 115.722656 -32.6875 118.640625 -34.84375 C 121.554688 -37.007812 123.90625 -38.976562 125.6875 -40.75 C 129.5 -44.5625 132.925781 -48.6875 135.96875 -53.125 C 139.019531 -57.570312 141.816406 -62.082031 144.359375 -66.65625 C 145.617188 -68.6875 146.882812 -70.90625 148.15625 -73.3125 C 149.425781 -75.726562 150.695312 -78.207031 151.96875 -80.75 C 154.757812 -86.582031 158.820312 -89.5 164.15625 -89.5 C 166.695312 -89.5 168.535156 -88.671875 169.671875 -87.015625 C 170.816406 -85.367188 171.390625 -83.40625 171.390625 -81.125 C 171.390625 -78.582031 170.753906 -76.046875 169.484375 -73.515625 C 166.691406 -67.921875 163.582031 -61.945312 160.15625 -55.59375 C 156.726562 -49.25 153.109375 -43.414062 149.296875 -38.09375 C 144.734375 -31.738281 139.40625 -26.023438 133.3125 -20.953125 C 129.75 -18.410156 126 -16.125 122.0625 -14.09375 C 118.132812 -12.0625 114.007812 -11.046875 109.6875 -11.046875 C 102.320312 -11.046875 96.988281 -12.628906 93.6875 -15.796875 C 90.394531 -18.972656 87.222656 -23.359375 84.171875 -28.953125 C 83.160156 -30.472656 82.144531 -31.234375 81.125 -31.234375 C 79.851562 -31.234375 77.945312 -29.769531 75.40625 -26.84375 C 72.875 -23.925781 70.84375 -21.707031 69.3125 -20.1875 C 66.019531 -16.375 61.769531 -12.5625 56.5625 -8.75 C 51.351562 -4.945312 46.460938 -2.285156 41.890625 -0.765625 C 38.085938 0.253906 34.40625 0.765625 30.84375 0.765625 Z M 33.515625 -19.8125 C 36.304688 -19.8125 39.476562 -20.953125 43.03125 -23.234375 C 47.101562 -25.773438 50.722656 -28.882812 53.890625 -32.5625 C 57.066406 -36.25 60.050781 -39.867188 62.84375 -43.421875 C 66.144531 -47.734375 69.445312 -52.046875 72.75 -56.359375 C 76.050781 -60.679688 79.097656 -65.128906 81.890625 -69.703125 C 84.679688 -73.765625 87.789062 -78.332031 91.21875 -83.40625 C 94.644531 -88.488281 96.359375 -93.566406 96.359375 -98.640625 C 96.359375 -101.179688 95.597656 -102.894531 94.078125 -103.78125 C 92.554688 -104.675781 90.648438 -105.125 88.359375 -105.125 C 85.816406 -105.125 83.273438 -104.804688 80.734375 -104.171875 C 78.203125 -103.535156 76.046875 -102.835938 74.265625 -102.078125 C 65.128906 -98.265625 57.132812 -92.421875 50.28125 -84.546875 C 43.925781 -77.441406 38.273438 -68.9375 33.328125 -59.03125 C 28.378906 -49.132812 25.90625 -39.613281 25.90625 -30.46875 C 25.90625 -27.675781 26.472656 -25.203125 27.609375 -23.046875 C 28.753906 -20.890625 30.722656 -19.8125 33.515625 -19.8125 Z M 33.515625 -19.8125 "/></g></g></g><g fill="#050d16" fill-opacity="1"><g transform="translate(579.680738, 311.250143)"><g><path d="M 1.90625 124.171875 C -2.15625 124.171875 -6.09375 123.660156 -9.90625 122.640625 C -19.300781 119.597656 -25.773438 113.882812 -29.328125 105.5 C -29.835938 103.976562 -30.21875 102.265625 -30.46875 100.359375 C -30.71875 98.453125 -30.84375 96.613281 -30.84375 94.84375 C -30.84375 91.789062 -30.523438 88.800781 -29.890625 85.875 C -29.265625 82.957031 -28.316406 79.976562 -27.046875 76.9375 C -25.015625 72.113281 -22.347656 67.859375 -19.046875 64.171875 C -15.742188 60.492188 -12.1875 56.878906 -8.375 53.328125 C -1.519531 46.460938 5.648438 40.363281 13.140625 35.03125 C 20.628906 29.707031 28.5625 24.503906 36.9375 19.421875 C 41 16.878906 45.125 14.335938 49.3125 11.796875 C 53.507812 9.265625 57.640625 6.726562 61.703125 4.1875 C 63.734375 3.175781 65.703125 2.097656 67.609375 0.953125 C 69.515625 -0.191406 71.351562 -1.398438 73.125 -2.671875 C 74.144531 -3.171875 75.222656 -3.738281 76.359375 -4.375 C 77.503906 -5.007812 78.710938 -5.707031 79.984375 -6.46875 C 82.523438 -8 84.300781 -9.523438 85.3125 -11.046875 C 86.332031 -12.316406 87.03125 -13.835938 87.40625 -15.609375 C 87.789062 -17.390625 88.238281 -19.421875 88.75 -21.703125 C 89 -22.210938 89.375 -23.671875 89.875 -26.078125 C 90.382812 -28.492188 90.640625 -30.335938 90.640625 -31.609375 C 90.640625 -33.128906 90.132812 -33.890625 89.125 -33.890625 C 88.363281 -33.890625 87.535156 -33.445312 86.640625 -32.5625 C 85.753906 -31.675781 85.054688 -30.851562 84.546875 -30.09375 C 83.785156 -29.070312 83.023438 -28.050781 82.265625 -27.03125 C 81.503906 -26.019531 80.617188 -25.007812 79.609375 -24 C 78.335938 -22.21875 76.75 -20.4375 74.84375 -18.65625 C 72.9375 -16.882812 71.09375 -15.109375 69.3125 -13.328125 C 65.25 -9.523438 60.425781 -6.222656 54.84375 -3.421875 C 49.257812 -0.628906 43.675781 0.765625 38.09375 0.765625 C 34.53125 0.765625 31.222656 0.191406 28.171875 -0.953125 C 25.128906 -2.097656 22.210938 -4.191406 19.421875 -7.234375 C 16.628906 -10.535156 14.535156 -14.660156 13.140625 -19.609375 C 11.742188 -24.566406 11.046875 -29.328125 11.046875 -33.890625 C 11.046875 -38.460938 11.613281 -43.414062 12.75 -48.75 C 13.894531 -54.082031 15.234375 -59.160156 16.765625 -63.984375 C 18.285156 -68.804688 20.0625 -73.691406 22.09375 -78.640625 C 24.125 -83.597656 26.28125 -88.363281 28.5625 -92.9375 C 30.851562 -97 33.265625 -101.0625 35.796875 -105.125 C 38.335938 -109.1875 40.878906 -113.117188 43.421875 -116.921875 C 44.941406 -119.210938 46.972656 -121.5 49.515625 -123.78125 C 52.054688 -126.070312 54.722656 -127.21875 57.515625 -127.21875 C 60.054688 -127.21875 62.210938 -126.265625 63.984375 -124.359375 C 65.765625 -122.453125 66.65625 -120.101562 66.65625 -117.3125 C 66.65625 -114.007812 65.507812 -110.832031 63.21875 -107.78125 C 60.9375 -104.738281 58.90625 -101.945312 57.125 -99.40625 C 54.332031 -95.09375 51.859375 -90.648438 49.703125 -86.078125 C 47.546875 -81.503906 45.453125 -76.804688 43.421875 -71.984375 C 41.390625 -67.160156 39.546875 -62.335938 37.890625 -57.515625 C 36.242188 -52.691406 34.785156 -47.738281 33.515625 -42.65625 C 33.265625 -41.132812 32.882812 -39.226562 32.375 -36.9375 C 31.863281 -34.65625 31.609375 -32.375 31.609375 -30.09375 C 31.609375 -22.46875 34.273438 -18.65625 39.609375 -18.65625 C 41.390625 -18.65625 43.296875 -19.289062 45.328125 -20.5625 C 47.359375 -21.832031 49.132812 -22.976562 50.65625 -24 C 52.6875 -25.269531 54.585938 -26.664062 56.359375 -28.1875 C 58.140625 -29.707031 59.796875 -31.226562 61.328125 -32.75 C 65.128906 -36.050781 68.617188 -39.734375 71.796875 -43.796875 C 74.972656 -47.859375 78.082031 -51.796875 81.125 -55.609375 C 83.914062 -59.671875 86.644531 -63.796875 89.3125 -67.984375 C 91.976562 -72.171875 94.457031 -76.425781 96.75 -80.75 C 99.28125 -85.3125 101.5625 -89.625 103.59375 -93.6875 C 104.613281 -95.726562 105.566406 -97.890625 106.453125 -100.171875 C 107.335938 -102.453125 108.414062 -104.609375 109.6875 -106.640625 C 112.226562 -109.691406 115.273438 -111.21875 118.828125 -111.21875 C 123.910156 -111.21875 127.085938 -108.804688 128.359375 -103.984375 C 128.609375 -102.710938 128.734375 -101.441406 128.734375 -100.171875 C 128.734375 -98.140625 128.476562 -96.171875 127.96875 -94.265625 C 127.46875 -92.359375 126.960938 -90.519531 126.453125 -88.75 C 125.941406 -86.457031 125.367188 -84.101562 124.734375 -81.6875 C 124.097656 -79.28125 123.398438 -76.804688 122.640625 -74.265625 C 121.367188 -69.191406 120.222656 -64.304688 119.203125 -59.609375 C 118.191406 -54.910156 117.050781 -50.019531 115.78125 -44.9375 C 115.53125 -43.925781 115.023438 -42.210938 114.265625 -39.796875 C 113.503906 -37.390625 113.125 -35.421875 113.125 -33.890625 C 113.125 -31.097656 113.757812 -29.703125 115.03125 -29.703125 C 116.550781 -29.703125 118.257812 -30.59375 120.15625 -32.375 C 122.0625 -34.15625 123.398438 -35.296875 124.171875 -35.796875 C 131.273438 -42.148438 137.875 -49.390625 143.96875 -57.515625 C 147.019531 -61.316406 150.003906 -65.441406 152.921875 -69.890625 C 155.835938 -74.335938 158.441406 -78.71875 160.734375 -83.03125 C 161.742188 -84.8125 162.820312 -86.207031 163.96875 -87.21875 C 165.113281 -88.238281 166.703125 -88.75 168.734375 -88.75 C 171.265625 -88.75 173.609375 -87.859375 175.765625 -86.078125 C 177.929688 -84.296875 179.015625 -82.140625 179.015625 -79.609375 C 179.015625 -77.578125 178.503906 -75.609375 177.484375 -73.703125 C 176.472656 -71.796875 175.457031 -69.828125 174.4375 -67.796875 C 173.164062 -65.765625 171.769531 -63.476562 170.25 -60.9375 C 168.726562 -58.394531 167.207031 -55.984375 165.6875 -53.703125 C 160.601562 -46.335938 154.507812 -39.101562 147.40625 -32 C 144.101562 -28.4375 140.609375 -24.878906 136.921875 -21.328125 C 133.242188 -17.773438 129.5 -14.601562 125.6875 -11.8125 C 123.65625 -10.03125 121.5625 -8.503906 119.40625 -7.234375 C 117.25 -5.960938 115.023438 -4.566406 112.734375 -3.046875 C 110.960938 -2.035156 108.929688 -0.957031 106.640625 0.1875 C 104.359375 1.332031 102.582031 2.664062 101.3125 4.1875 C 100.039062 5.457031 99.085938 7.296875 98.453125 9.703125 C 97.816406 12.117188 97.117188 14.34375 96.359375 16.375 C 95.597656 18.664062 94.769531 20.953125 93.875 23.234375 C 92.988281 25.515625 92.039062 27.671875 91.03125 29.703125 C 87.476562 39.097656 83.222656 47.921875 78.265625 56.171875 C 73.316406 64.429688 68.175781 72.625 62.84375 80.75 C 57.257812 89.125 50.910156 96.863281 43.796875 103.96875 C 36.691406 111.082031 28.441406 116.671875 19.046875 120.734375 C 13.203125 123.023438 7.488281 124.171875 1.90625 124.171875 Z M 0.765625 105.125 C 5.335938 105.125 9.78125 104.109375 14.09375 102.078125 C 18.40625 100.046875 22.085938 97.632812 25.140625 94.84375 C 31.484375 89.25 37.066406 83.023438 41.890625 76.171875 C 44.429688 72.617188 46.90625 69.378906 49.3125 66.453125 C 51.726562 63.535156 54.082031 60.300781 56.375 56.75 C 58.65625 53.195312 60.9375 49.453125 63.21875 45.515625 C 65.507812 41.578125 67.671875 37.703125 69.703125 33.890625 C 70.460938 32.628906 71.539062 30.664062 72.9375 28 C 74.332031 25.332031 75.03125 23.109375 75.03125 21.328125 C 75.03125 19.804688 74.394531 19.046875 73.125 19.046875 C 71.601562 19.046875 69.765625 19.679688 67.609375 20.953125 C 65.453125 22.222656 63.988281 23.109375 63.21875 23.609375 C 55.601562 28.179688 48.75 32.753906 42.65625 37.328125 C 36.5625 41.898438 30.210938 46.46875 23.609375 51.03125 C 19.804688 53.832031 16.191406 56.691406 12.765625 59.609375 C 9.335938 62.523438 6.097656 65.757812 3.046875 69.3125 C 0.253906 72.613281 -2.726562 76.421875 -5.90625 80.734375 C -9.082031 85.054688 -10.671875 89.503906 -10.671875 94.078125 C -10.671875 97.628906 -9.585938 100.359375 -7.421875 102.265625 C -5.265625 104.171875 -2.535156 105.125 0.765625 105.125 Z M 0.765625 105.125 "/></g></g></g></g></g></g><g clip-path="url(#5ba3737cdd)"><path stroke-linecap="round" transform="matrix(1.569837, -0.585435, 0.585435, 1.569837, 201.301335, 293.847166)" fill="none" stroke-linejoin="miter" d="M 7.995883 12.987709 C 4.918077 32.637249 16.160746 31.78862 41.724703 10.439636 " stroke="#050d16" stroke-width="15" stroke-opacity="1" stroke-miterlimit="4"/></g></g></g></svg>